<svg width="16.000000" height="20.000000" viewBox="0 0 16 20" fill="none" xmlns="http://www.w3.org/2000/svg" xmlns:xlink="http://www.w3.org/1999/xlink">
	<desc>
			Created with Pixso.
	</desc>
	<defs/>
	<path id="path" d="M4.59 0.58L14.67 7.05C15.93 8.01 16.17 9.81 15.22 11.07C15.08 11.25 14.93 11.41 14.76 11.55L4.69 18.6C3.47 19.61 1.66 19.43 0.65 18.21C0.23 17.7 0 17.05 0 16.39L0 2.86C0 1.28 1.28 0 2.86 0C3.49 0 4.09 0.2 4.59 0.58Z" fill="#FFFFFF" fill-opacity="1.000000" fill-rule="evenodd"/>
	<path id="path" d="M14.67 7.05C15.93 8.01 16.17 9.81 15.22 11.07C15.08 11.25 14.93 11.41 14.76 11.55L4.69 18.6C3.47 19.61 1.66 19.43 0.65 18.21C0.23 17.7 0 17.05 0 16.39L0 2.86C0 1.28 1.28 0 2.86 0C3.49 0 4.09 0.2 4.59 0.58L14.67 7.05Z" stroke="#000000" stroke-opacity="0" stroke-width="1.000000"/>
</svg>
