<svg width="11.000000" height="11.000000" viewBox="0 0 11 11" fill="none" xmlns="http://www.w3.org/2000/svg" xmlns:xlink="http://www.w3.org/1999/xlink">
	<desc>
			Created with Pixso.
	</desc>
	<defs/>
	<path id="形状" d="M0.95 10.39C0.57 10.77 -0.03 10.77 -0.4 10.39C-0.78 10.02 -0.78 9.42 -0.4 9.04L3.65 4.99L-0.4 0.95C-0.78 0.57 -0.78 -0.03 -0.4 -0.41C-0.03 -0.78 0.57 -0.78 0.95 -0.41L5 3.64L9.04 -0.41C9.42 -0.78 10.02 -0.78 10.39 -0.41C10.77 -0.03 10.77 0.57 10.39 0.95L0.95 10.39ZM7.25 5.89L10.39 9.04C10.77 9.42 10.77 10.02 10.39 10.39C10.02 10.77 9.42 10.77 9.04 10.39L5.9 7.24L7.25 5.89Z" fill="#FFFFFF" fill-opacity="1.000000" fill-rule="evenodd"/>
	<path id="形状" d="M-0.4 10.39C-0.78 10.02 -0.78 9.42 -0.4 9.04L3.65 4.99L-0.4 0.95C-0.78 0.57 -0.78 -0.03 -0.4 -0.41C-0.03 -0.78 0.57 -0.78 0.95 -0.41L5 3.64L9.04 -0.41C9.42 -0.78 10.02 -0.78 10.39 -0.41C10.77 -0.03 10.77 0.57 10.39 0.95L0.95 10.39C0.57 10.77 -0.03 10.77 -0.4 10.39ZM10.39 9.04C10.77 9.42 10.77 10.02 10.39 10.39C10.02 10.77 9.42 10.77 9.04 10.39L5.9 7.24L7.25 5.89L10.39 9.04Z" stroke="#000000" stroke-opacity="0" stroke-width="1.000000"/>
</svg>
