<svg width="16px" height="16px" viewBox="0 0 16 16" version="1.1" xmlns="http://www.w3.org/2000/svg" xmlns:xlink="http://www.w3.org/1999/xlink">
    <title>ic_eye</title>
    <defs>
        <path d="M7.32371015,0 C10.2161159,0 13.0862989,1.62386862 14.5640804,4.31211953 C14.6740191,4.51211033 14.6740182,4.7544401 14.5640779,4.95443003 C13.087076,7.64121249 10.2273122,9.33333333 7.33333333,9.33333333 C4.44108433,9.33333333 1.56130001,7.63921559 0.0825325306,4.95074171 C-0.0275193427,4.75066186 -0.0275103167,4.50817591 0.0825564514,4.30810425 C1.56061108,1.62140004 4.4300202,0 7.32371015,0 Z M7.32371015,1 C4.82340525,1 2.39542571,2.37712992 1.0846762,4.57054266 L1.04983333,4.6295 L1.08604458,4.69088094 C2.13927234,6.45541376 3.90439953,7.71649866 5.82563842,8.15935854 C4.64714519,7.59596909 3.83333333,6.39302252 3.83333333,5 C3.83333333,4.64235711 3.88697558,4.29724303 3.98665326,3.97226457 C4.03577365,3.81211772 4.18381507,3.8513414 4.21606767,3.97729339 C4.39118223,4.66114613 5.01155579,5.16666667 5.75,5.16666667 C6.60937412,5.16666667 7.30883989,4.48201768 7.33270394,3.62841311 L7.33333333,3.58333333 L7.33333333,3.41666667 C7.33333333,2.72734416 6.89283086,2.14090651 6.27796714,1.92349495 C6.13848241,1.87417412 6.12574726,1.70996894 6.27790215,1.66191709 C6.35108543,1.63880516 6.4253078,1.61803222 6.50048152,1.59968629 C6.76741264,1.53454253 7.04633907,1.5 7.33333333,1.5 C9.26632996,1.5 10.8333333,3.06700338 10.8333333,5 C10.8333333,6.39341781 10.0190595,7.59665179 8.84039276,8.15982114 C10.7546228,7.71755404 12.508154,6.46008207 13.5604617,4.69496009 L13.5966667,4.63333333 L13.561811,4.57412039 C12.2654887,2.40323487 9.87559061,1.03040872 7.40605608,1.00049887 L7.32371015,1 Z" id="path-1"></path>
    </defs>
    <g id="ic_eye" stroke="none" stroke-width="1" fill="none" fill-rule="evenodd">
        <g id="Public/ic_public_password_visible_filled" transform="translate(0.666667, 3.333333)">
            <mask id="mask-2" fill="white">
                <use xlink:href="#path-1"></use>
            </mask>
            <g id="形状结合" fill-rule="nonzero"></g>
            <g id="Symbol/color-light/colorPrimary" mask="url(#mask-2)" fill="#FFFFFF" fill-opacity="0.86">
                <g transform="translate(-0.666667, -3.333333)" id="color/#000000">
                    <rect x="0" y="0" width="16" height="16"></rect>
                </g>
            </g>
        </g>
    </g>
</svg>