<?xml version="1.0" encoding="UTF-8"?>
<svg width="24px" height="24px" viewBox="0 0 24 24" version="1.1" xmlns="http://www.w3.org/2000/svg" xmlns:xlink="http://www.w3.org/1999/xlink">
    <title>ic_activity_on_blue</title>
    <g id="ic_activity_on_blue" stroke="none" stroke-width="1" fill="none" fill-rule="evenodd">
        <path d="M21.1666667,12.5789474 L21.1666667,19.9046378 C21.1666667,21.6141592 19.6276455,23 17.7291667,23 L13.2222222,23 L13.2222222,12.5789474 L21.1666667,12.5789474 Z M10.7777778,4.47368423 L10.7777778,11.4210526 L3.44444445,11.4210526 C2.09441506,11.4210526 1,10.3842384 1,9.10526316 L1,6.78947368 C1,5.51049848 2.09441506,4.47368423 3.44444445,4.47368423 L10.7777778,4.47368423 Z M20.5555555,4.47368423 C21.9055849,4.47368423 23,5.51049848 23,6.78947368 L23,9.10526316 C23,10.3842384 21.9055849,11.4210526 20.5555555,11.4210526 L13.2222222,11.4210526 L13.2222222,4.47368423 L20.5555555,4.47368423 Z M10.7777778,23 L6.27083335,23 C4.3723545,23 2.83333333,21.6141592 2.83333333,19.9046378 L2.83333333,12.5789474 L10.7777778,12.5789474 L10.7777778,23 Z" id="形状" fill="#317AF7" fill-rule="nonzero"></path>
        <path d="M13.2222222,12.5789474 L13.2222222,23 L10.7777778,23 L10.7777778,12.5789474 L13.2222222,12.5789474 Z M17.1854497,1.67827903 C17.9852414,2.43597636 18.1149548,3.58809461 17.5745901,4.47372951 L13.2222222,4.47368423 L13.2222222,11.4210526 L10.7777778,11.4210526 L10.7777778,4.47368423 L6.4254221,4.47374943 C5.88504328,3.58811191 6.01475265,2.43598204 6.81455027,1.67827903 C7.75044727,0.791639774 9.25643431,0.774254691 10.2146878,1.62612378 L10.2715168,1.67827903 L12,3.31540284 L13.7284832,1.67827903 C14.6830982,0.773906989 16.2308348,0.773906989 17.1854497,1.67827903 Z" id="形状" fill="#0A59F7" fill-rule="nonzero"></path>
        <path d="M13.2222222,12.5789474 L13.2222222,23 L10.7777778,23 L10.7777778,12.5789474 L13.2222222,12.5789474 Z M17.1854497,1.67827903 C17.9852414,2.43597636 18.1149548,3.58809461 17.5745901,4.47372951 L13.2222222,4.47368423 L13.2222222,11.4210526 L10.7777778,11.4210526 L10.7777778,4.47368423 L6.4254221,4.47374943 C5.88504328,3.58811191 6.01475265,2.43598204 6.81455027,1.67827903 C7.75044727,0.791639774 9.25643431,0.774254691 10.2146878,1.62612378 L10.2715168,1.67827903 L12,3.31540284 L13.7284832,1.67827903 C14.6830982,0.773906989 16.2308348,0.773906989 17.1854497,1.67827903 Z" id="形状" fill="#FFFFFF" fill-rule="nonzero" opacity="0.8"></path>
    </g>
</svg>