<?xml version="1.0" encoding="UTF-8"?>
<svg width="36px" height="36px" viewBox="0 0 36 36" version="1.1" xmlns="http://www.w3.org/2000/svg" xmlns:xlink="http://www.w3.org/1999/xlink">
    <title>ic_001</title>
    <defs>
        <linearGradient x1="50%" y1="0%" x2="50%" y2="100%" id="linearGradient-1">
            <stop stop-color="#0A59F7" offset="0%"></stop>
            <stop stop-color="#FFFFFF" stop-opacity="0.117573345" offset="100%"></stop>
        </linearGradient>
        <linearGradient x1="50%" y1="0%" x2="50%" y2="100%" id="linearGradient-2">
            <stop stop-color="#FFFFFF" offset="0%"></stop>
            <stop stop-color="#FFFFFF" stop-opacity="0.117573345" offset="100%"></stop>
        </linearGradient>
    </defs>
    <g id="ic_001" stroke="none" stroke-width="1" fill="none" fill-rule="evenodd">
        <ellipse id="椭圆形" fill="#317AF7" cx="20.1532754" cy="23.2258065" rx="12.8467246" ry="12.7741935"></ellipse>
        <path d="M27.3553893,19.7422686 L27.3550761,28.9673223 L27.0911517,28.8981464 C24.1246548,27.8768476 21.8319811,26.3594306 20.2131306,24.3458955 C18.802905,22.5918492 17.6645957,21.056549 16.7982025,19.7399949 L27.3553893,19.7422686 Z" id="形状结合" fill="url(#linearGradient-1)"></path>
        <polygon id="矩形备份-51" fill="#0A59F7" points="18.1910813 17.3876861 25.6905715 17.3876861 27.3553893 19.5611469 16.5262635 19.5611469"></polygon>
        <rect id="矩形备份-52" fill="#0A59F7" x="18.1014091" y="13.563871" width="7.48194142" height="3.48387097"></rect>
        <rect id="矩形备份-53" fill="#0A59F7" x="19.8734478" y="5.9770171" width="3.93786391" height="1.99233903"></rect>
        <path d="M22.1077546,2.06057393e-13 L22.1077546,2.99822679 C22.1077546,3.39581881 22.2999911,3.80728396 22.6844641,4.23262224 C22.9365604,4.37248195 23.1502693,4.56925906 23.3092073,4.8039389 L23.4175254,4.89028672 L23.3640102,4.89000097 C23.5232661,5.15647148 23.6144186,5.46587582 23.6144186,5.79589537 L19.8734478,5.79589537 C19.8734478,5.46587582 19.9646003,5.15647148 20.1238562,4.89000097 L20.070341,4.89028672 L20.1786591,4.8039389 C20.3375971,4.56925906 20.551306,4.37248195 20.8021922,4.23064356 C21.1878753,3.80728396 21.3801118,3.39581881 21.3801118,2.99822679 L21.3801118,2.06057393e-13 L22.1077546,2.06057393e-13 Z" id="形状结合" fill="#0A59F7"></path>
        <path d="M18.1014091,13.2218863 C19.2917024,11.916521 19.8689739,10.2864255 19.8332235,8.33159959 L23.8515361,8.33159959 C23.8157857,10.2864255 24.3930572,11.916521 25.5833505,13.2218863 L18.1014091,13.2218863 Z" id="形状结合" fill="#0A59F7"></path>
        <g id="编组-25" opacity="0.8" transform="translate(16.526264, 0.000000)">
            <path d="M10.8291257,19.7422686 L10.8288125,28.9673223 L10.5648882,28.8981464 C7.59839127,27.8768476 5.30571758,26.3594306 3.6868671,24.3458955 C2.27664151,22.5918492 1.13833214,21.056549 0.271938983,19.7399949 L10.8291257,19.7422686 Z" id="形状结合" fill="url(#linearGradient-2)"></path>
            <polygon id="矩形备份-51" fill="#FFFFFF" points="1.66481778 17.3876861 9.16430796 17.3876861 10.8291257 19.5611469 -2.87263447e-13 19.5611469"></polygon>
            <rect id="矩形备份-52" fill="#FFFFFF" x="1.57514556" y="13.563871" width="7.48194142" height="3.48387097"></rect>
            <rect id="矩形备份-53" fill="#FFFFFF" x="3.34718432" y="5.9770171" width="3.93786391" height="1.99233903"></rect>
            <path d="M5.5814911,0 L5.5814911,2.99822679 C5.5814911,3.39581881 5.77372759,3.80728396 6.15820058,4.23262224 C6.41029688,4.37248195 6.62400573,4.56925906 6.78294377,4.8039389 L6.89126183,4.89028672 L6.83774665,4.89000097 C6.99700259,5.15647148 7.08815503,5.46587582 7.08815503,5.79589537 L3.34718432,5.79589537 C3.34718432,5.46587582 3.43833676,5.15647148 3.5975927,4.89000097 L3.54407751,4.89028672 L3.65239558,4.8039389 C3.81133362,4.56925906 4.02504247,4.37248195 4.27592868,4.23064356 C4.66161176,3.80728396 4.85384825,3.39581881 4.85384825,2.99822679 L4.85384825,0 L5.5814911,0 Z" id="形状结合" fill="#FFFFFF"></path>
            <path d="M1.57514556,13.2218863 C2.76543887,11.916521 3.34271034,10.2864255 3.30695998,8.33159959 L7.32527257,8.33159959 C7.2895222,10.2864255 7.86679367,11.916521 9.05708698,13.2218863 L1.57514556,13.2218863 Z" id="形状结合" fill="#FFFFFF"></path>
        </g>
        <path d="M19.0265354,11.2662549 C19.5536007,9.77523502 19.8171333,8.63188378 19.8171333,7.83620121 C19.8171333,7.04051863 19.8171333,6.27803203 19.8171333,5.54874141 C19.8769016,5.00426623 20.0641039,4.58527773 20.3787403,4.29177589 C20.8506949,3.85152314 21.1413137,3.33646349 21.1413137,3.11720559 C21.1413137,2.97103365 21.1413137,1.93196512 21.1413137,2.06057393e-13 L22.2081289,2.06057393e-13 L22.2081289,3.11720559 C22.2920652,3.50643392 22.513406,3.8294567 22.8721512,4.08627393 C23.4102691,4.47149978 23.8113117,5.07441994 23.8113117,5.68189633 C23.8113117,6.08688059 23.8113117,6.84936719 23.8113117,7.96935613 C23.7874621,9.328551 23.9282835,10.3526204 24.2337758,11.0415643 C24.6920143,12.0749802 26.1631519,13.5997631 26.1631519,13.7565285" id="路径-2" stroke="#317AF7" stroke-width="0.580645161" stroke-linecap="round"></path>
        <line x1="20.070341" y1="5.9770171" x2="23.6144186" y2="5.9770171" id="路径-3" stroke="#0A59F7" stroke-width="0.5"></line>
        <line x1="19.8734478" y1="8.29959774" x2="23.6144186" y2="8.29959774" id="路径-3备份" stroke="#0A59F7" stroke-width="0.5"></line>
        <path d="M12.8097751,18.5273398 L14.0318005,19.3726054 L15.5760159,19.3726054 C15.9696947,19.3737707 16.3365039,19.5724619 16.5504898,19.9029167 C17.4200699,21.2282614 18.5670592,22.7767713 19.9914579,24.5484462 C21.6103084,26.5619813 23.9029821,28.0793982 26.869479,29.1006971 L27.2281275,29.1949871 C27.614468,29.2965575 27.8837742,29.6458169 27.8837742,30.045286 L27.8830912,32.1307292 C27.8720472,32.2922071 27.7321906,32.4141578 27.5707153,32.4030762 C25.3584156,32.2476432 22.7542022,32.1699267 19.758075,32.1699267 C16.8171195,32.1699267 14.9560013,32.9509825 14.1747206,34.513094 C14.0762515,34.7129168 13.8725969,34.8389644 13.6498309,34.8387097 L12.1737693,34.8387097 C12.1145923,34.8387097 12.0568017,34.8207948 12.0080012,34.7873221 C11.8745267,34.6957709 11.8405411,34.5133516 11.9320923,34.379877 L12.2385427,33.9330962 C12.255279,33.9086959 12.2642365,33.8798006 12.2642365,33.8502121 C12.2642365,33.7692846 12.1986317,33.7036798 12.1177042,33.7036798 L5.78188281,33.7036798 C5.51682722,33.7036798 5.26509381,33.8198716 5.09314038,34.0215806 L4.9098904,34.2365408 C4.8542096,34.3018568 4.772695,34.3394813 4.6868665,34.3394813 L3.29294249,34.3394813 C3.21779864,34.3391706 3.14564418,34.3100096 3.09138697,34.2580206 C2.97452136,34.1460407 2.97056071,33.9605248 3.08221273,33.843345 C4.23102629,32.6348935 4.76402418,31.9407033 4.6812064,31.7607743 C4.62200126,31.6321459 4.56595119,31.488412 4.51305618,31.3295726 C4.45440853,31.1523562 4.42442735,30.9669196 4.42416648,30.780251 L4.42416648,25.7095825 L5.32668204,20.3501973 C5.42171853,19.7858445 5.91036516,19.3726054 6.482664,19.3726054 L7.84553718,19.3726054 L8.95203111,18.5273398 L12.8097751,18.5273398 Z M26.4394296,29.5689933 L26.4396188,30.5474943 C26.6997503,30.5683252 26.9540578,30.5830209 27.2025413,30.5915812 L27.2025413,29.6775034 C26.9515551,29.6522857 26.6971846,29.6161157 26.4394296,29.5689933 Z M25.234385,29.2763335 L25.2355087,30.4131602 C25.4912208,30.4492347 25.7419885,30.4801004 25.9878116,30.5057572 L25.9868464,29.4757932 C25.7390603,29.4191263 25.4882399,29.3526398 25.234385,29.2763335 Z M23.7275113,28.7234354 L23.7284128,30.1519402 C24.0885379,30.2251812 24.4401497,30.2894539 24.7832482,30.3447582 L24.7824514,29.1312075 C24.4362913,29.0130388 24.0846446,28.8771147 23.7275113,28.7234354 Z M22.2198231,27.9145866 L22.2197807,29.7914822 C22.4751172,29.8658099 22.7301686,29.9322406 22.984935,29.9907742 L23.2744619,30.0544981 L23.2750589,28.5177581 C22.9483323,28.3574452 22.5965871,28.1563881 22.2198231,27.9145866 Z M20.7132914,26.8352895 L20.7131474,29.2626146 C21.0654169,29.4072894 21.4171485,29.537064 21.7683423,29.6519385 L21.768599,27.6137815 C21.4346057,27.3832333 21.0828365,27.1237359 20.7132914,26.8352895 Z M18.2884619,24.7624981 L18.2884619,28.0366053 C18.9478304,28.4321743 19.6053407,28.7762614 20.2609925,29.0688666 L20.261951,26.4757829 C19.6494122,25.9784469 18.9915825,25.407352 18.2884619,24.7624981 Z" id="形状结合" fill="#FFFFFF"></path>
        <path d="M8.7490783,17.9273398 L12.997064,17.9273398 L14.220035,18.7723398 L15.5777919,18.772608 C16.1202827,18.7742138 16.6286793,19.0238745 16.958654,19.4430201 L17.0521494,19.5737698 C17.9100504,20.8813142 19.0459202,22.414812 20.459069,24.1724942 C22.0030524,26.0929092 24.2003867,27.5472253 27.0220371,28.5204161 L27.3806856,28.6147061 C28.0306817,28.7855926 28.4837742,29.3732018 28.4837742,30.0454826 L28.4816928,32.1716695 C28.4480353,32.663787 28.021772,33.0354424 27.5286639,33.0016007 C25.3315412,32.8472341 22.7410363,32.7699267 19.758075,32.7699267 C17.125734,32.7699267 15.4997287,33.4098236 14.7932865,34.6292063 L14.7129218,34.7783099 C14.5133111,35.1833788 14.100624,35.4392254 13.6498309,35.4387105 L12.1737693,35.4387105 C11.9934376,35.4387105 11.8173304,35.384117 11.6686191,35.2821148 C11.3557414,35.0675096 11.2222577,34.6890551 11.3042972,34.3406777 L11.315035,34.3033398 L5.78188281,34.3036798 C5.7148806,34.3036798 5.65040413,34.3257085 5.59790317,34.3654042 L5.54974402,34.4108274 L5.36649403,34.6257877 C5.19681625,34.8248272 4.94841432,34.9394813 4.6868665,34.9394813 L3.29046189,34.9394761 C3.0614816,34.9385295 2.84161077,34.8496672 2.67627526,34.6912437 C2.32050403,34.350346 2.30815233,33.7859416 2.64735409,33.4299469 L2.9987145,33.0555681 C3.3273069,32.7003813 3.58747486,32.4029582 3.77813492,32.1649884 L3.93119999,31.9665209 L4.04603497,31.7993398 L4.00474969,31.6928053 L3.94343818,31.5180808 C3.86476631,31.2803569 3.82451711,31.0315707 3.82416648,30.780251 L3.83249719,25.609946 L4.73501275,20.2505607 C4.87869201,19.3973538 5.61744393,18.7726054 6.482664,18.7726054 L7.64203497,18.7723398 L8.7490783,17.9273398 Z M8.95203111,18.5273398 L7.84553718,19.3726054 L6.482664,19.3726054 C5.91036516,19.3726054 5.42171853,19.7858445 5.32668204,20.3501973 L4.42416648,25.7095825 L4.42416648,30.780251 C4.42442735,30.9669196 4.45440853,31.1523562 4.51305618,31.3295726 C4.56595119,31.488412 4.62200126,31.6321459 4.6812064,31.7607743 C4.76402418,31.9407033 4.23102629,32.6348935 3.08221273,33.843345 C2.97056071,33.9605248 2.97452136,34.1460407 3.09138697,34.2580206 C3.14564418,34.3100096 3.21779864,34.3391706 3.29294249,34.3394813 L4.6868665,34.3394813 L4.75009277,34.3325819 C4.81183769,34.3189383 4.8681298,34.2855278 4.9098904,34.2365408 L5.09314038,34.0215806 C5.26509381,33.8198716 5.51682722,33.7036798 5.78188281,33.7036798 L12.1177042,33.7036798 C12.1986317,33.7036798 12.2642365,33.7692846 12.2642365,33.8502121 C12.2642365,33.8798006 12.255279,33.9086959 12.2385427,33.9330962 L11.9320923,34.379877 C11.8405411,34.5133516 11.8745267,34.6957709 12.0080012,34.7873221 C12.0568017,34.8207948 12.1145923,34.8387097 12.1737693,34.8387097 L13.6498309,34.8387097 L13.743881,34.8312392 C13.9286373,34.8014452 14.0903185,34.6843707 14.1747206,34.513094 C14.9560013,32.9509825 16.8171195,32.1699267 19.758075,32.1699267 L20.4425319,32.1713063 L21.7697034,32.182343 C23.9352757,32.2099346 25.8689463,32.2835123 27.5707153,32.4030762 L27.6382829,32.3999532 C27.7695208,32.3785081 27.8736249,32.2691388 27.8830912,32.1307292 L27.8837742,30.045286 C27.8837742,29.6458169 27.614468,29.2965575 27.2281275,29.1949871 L26.869479,29.1006971 L26.5028379,28.9706923 C23.7149831,27.9533671 21.5435308,26.4789229 19.9914579,24.5484462 L19.302376,23.6812058 C18.1924353,22.2668004 17.2751399,21.0073707 16.5504898,19.9029167 C16.3365039,19.5724619 15.9696947,19.3737707 15.5760159,19.3726054 L14.0318005,19.3726054 L12.8097751,18.5273398 L8.95203111,18.5273398 Z M26.4394296,29.5689933 L26.5864923,29.5947522 L26.587035,30.5573398 L26.4396188,30.5474943 L26.4394296,29.5689933 Z M25.8405237,30.4898275 L25.839035,29.4393398 L25.9868464,29.4757932 L25.9878116,30.5057572 C25.7419885,30.4801004 25.4912208,30.4492347 25.2355087,30.4131602 L25.8405237,30.4898275 Z M25.234385,29.2763335 L25.3831255,29.3200193 L25.383035,30.4323398 L25.2355087,30.4131602 L25.234385,29.2763335 Z M24.7832482,30.3447582 L24.6359701,30.320555 L24.634035,29.0773398 L24.7824514,29.1312075 L24.7832482,30.3447582 Z M23.7275113,28.7234354 L23.8760828,28.7864758 L23.874035,30.1803398 L23.7284128,30.1519402 L23.7275113,28.7234354 Z M23.127035,28.4413398 L23.2750589,28.5177581 L23.2744619,30.0544981 L23.128035,30.0223398 L23.127035,28.4413398 Z M21.6196515,29.6024227 L21.619035,27.5093398 L21.768599,27.6137815 L21.7683423,29.6519385 L21.4169693,29.5320973 L21.6196515,29.6024227 Z M20.261951,26.4757829 L20.2609925,29.0688666 L20.1140394,29.0024363 L20.113035,26.3533398 L20.261951,26.4757829 Z M22.3699265,28.009591 L22.368035,29.8323398 L22.2197807,29.7914822 L22.2198231,27.9145866 L22.3699265,28.009591 Z M20.7131474,29.2626146 L20.7132914,26.8352895 L20.9871173,27.0461964 L20.8620252,26.9505583 L20.860035,29.3203398 L20.7131474,29.2626146 Z" id="形状结合" fill="#317AF7" fill-rule="nonzero"></path>
        <path d="M6.64862237,32.162896 L12.3935014,32.162896 C12.4744289,32.162896 12.5400336,32.2285008 12.5400336,32.3094283 C12.5400336,32.3429093 12.5285679,32.3753806 12.5075447,32.4014382 L12.207551,32.7732708 C12.0962795,32.9111882 11.9285853,32.9913602 11.7513776,32.9913602 L6.00649865,32.9913602 C5.92557111,32.9913602 5.85996637,32.9257555 5.85996637,32.844828 C5.85996637,32.811347 5.87143208,32.7788757 5.89245531,32.752818 L6.19244901,32.3809855 C6.30372046,32.2430681 6.47141474,32.162896 6.64862237,32.162896 Z" id="矩形" fill="#317AF7"></path>
        <path d="M6.89262711,20.5643971 L14.3083496,20.5643971 C14.6151364,20.5643971 14.8700198,20.8009663 14.8928531,21.1069022 L15.1969639,25.181584 C15.2210568,25.5043963 14.9788968,25.7856186 14.6560845,25.8097114 C14.6415684,25.8107948 14.627017,25.8113371 14.6124605,25.8113371 L6.1950076,25.8113371 C5.87129746,25.8113371 5.60887853,25.5489181 5.60887853,25.225208 C5.60887853,25.1920593 5.61169063,25.1589703 5.61728457,25.126297 L6.31490408,21.0516151 C6.36309056,20.7701658 6.60708255,20.5643971 6.89262711,20.5643971 Z" id="矩形" fill="#317AF7"></path>
        <circle id="椭圆形备份-16" fill="#317AF7" cx="13" cy="28.7444202" r="1"></circle>
        <circle id="椭圆形备份-17" fill="#317AF7" cx="7" cy="28.7444202" r="1"></circle>
    </g>
</svg>