<?xml version="1.0" encoding="UTF-8"?>
<svg width="24px" height="24px" viewBox="0 0 24 24" version="1.1" xmlns="http://www.w3.org/2000/svg" xmlns:xlink="http://www.w3.org/1999/xlink">
    <title>ic_explore_on_blue</title>
    <g id="ic_explore_on_blue" stroke="none" stroke-width="1" fill="none" fill-rule="evenodd">
        <path d="M6.35067903,1.24690744 C6.42236439,1.6585484 6.14677592,2.05036181 5.73513494,2.12204717 C5.10688035,2.23145478 4.72595627,2.58895314 4.60829089,3.22431624 C4.60939686,3.23083782 4.60854341,3.2360563 4.60763409,3.24127796 C4.59464052,3.3158913 4.5847737,3.39277405 4.57797584,3.47182956 C4.55210992,3.80170247 4.58581494,4.19435667 4.67963821,4.65215742 C4.71643743,4.83171527 4.76241937,5.01701281 4.8173716,5.20754765 C6.6216849,2.47132047 9.72261081,0.665662522 13.2452707,0.665662522 C18.8164199,0.665662522 23.3327287,5.18197128 23.3327287,10.7531205 C23.3327287,14.2770739 21.5257444,17.3789836 18.7878009,19.1828244 C18.9794563,19.2383571 19.1658247,19.2846485 19.3463886,19.3216539 C19.6808909,19.3902079 19.9806124,19.4266659 20.2467559,19.4316711 C20.427709,19.4324079 20.5991367,19.418928 20.7600142,19.3909119 L20.7982998,19.3883914 C21.4186322,19.2656217 21.7684806,18.8864339 21.8764989,18.2661572 C21.9481842,17.8545162 22.3399976,17.5789277 22.7516386,17.6506131 C23.1632797,17.7222984 23.4388681,18.1141118 23.3671827,18.5257528 C23.1372319,19.8462063 22.3056778,20.6323188 21.0887585,20.8646547 C21.0667129,20.8722458 21.0433884,20.8774549 21.0196098,20.8815958 C20.5681536,20.9602149 20.0688469,20.9594298 19.5321083,20.8863496 C19.372049,20.8656016 19.2089458,20.8380546 19.0425991,20.803963 C18.3978935,20.6718347 17.7036987,20.4449121 16.9742879,20.1304676 C15.8203569,20.5881854 14.5622885,20.8405784 13.2452707,20.8405784 C7.67412155,20.8405784 3.15781279,16.3242697 3.15781279,10.7531205 C3.15781279,9.43535811 3.41049128,8.17661192 3.87004066,7.02268955 C3.85923587,6.99736838 3.84836173,6.97193151 3.83759471,6.94653824 C3.82059929,6.90538602 3.80326605,6.86395501 3.78621243,6.8226282 C3.62644032,6.43638934 3.49246634,6.06112671 3.38471062,5.69843744 C3.08252025,4.68641702 2.9809773,3.76248385 3.11695025,2.98168231 C3.12366261,2.94313774 3.13318178,2.90578605 3.14526121,2.86980066 C3.38658102,1.67438804 4.16981796,0.858748632 5.47553929,0.631363349 C5.88718026,0.559677989 6.27899367,0.835266463 6.35067903,1.24690744 Z" id="形状结合" fill="#317AF7" fill-rule="nonzero"></path>
        <path d="M15.4253498,-0.652330572 C15.7671131,-0.411945654 15.8492965,0.059978741 15.6089117,0.401742068 C15.3685268,0.743505396 14.8966023,0.825688834 14.554839,0.585303914 C14.033233,0.218423694 13.5110895,0.2018592 12.978618,0.567926775 C12.9747886,0.573320276 12.9704951,0.576406806 12.9661598,0.579456093 C12.9042123,0.623027859 12.8428712,0.670415277 12.7821637,0.721509149 C12.5306184,0.936474552 12.2768029,1.23795604 12.019432,1.62801313 C11.0124597,3.15412439 10.2477499,5.73022527 9.92883108,8.85455555 C9.7529082,10.5780075 9.72934755,12.3148422 9.83265486,13.963733 L9.88462252,14.6647206 C10.0000153,16.0106554 10.2002893,17.2860412 10.4708695,18.4329499 C10.8600398,20.0709708 11.3920328,21.4239637 12.0174903,22.3718723 C12.205544,22.656876 12.3916995,22.894591 12.5763521,23.0863219 C12.7037842,23.2147961 12.8345337,23.3264822 12.9681015,23.4204293 L12.9969559,23.4457191 C13.5224085,23.797549 14.0379149,23.776803 14.5528973,23.4145815 C14.8946605,23.1741966 15.3665849,23.25638 15.6069698,23.5981434 C15.8473548,23.9399067 15.7651713,24.411831 15.4234081,24.652216 C14.3271066,25.4233178 13.1832436,25.3911857 12.1584655,24.6949801 C12.1375091,24.6847592 12.1173328,24.6719497 12.0975907,24.6580638 C11.722771,24.3944281 11.3702629,24.0408098 11.0424069,23.6096028 C10.943899,23.4817527 10.8480462,23.3469427 10.7545278,23.2052114 C9.90926284,21.9241748 9.23823042,20.0882582 8.80421965,17.8907006 C8.51388047,16.4283231 8.33228999,14.8287473 8.27496037,13.1706447 C8.15168205,9.7605161 8.55896615,6.43882124 9.37532446,3.84909001 C9.38875714,3.80691763 9.40195058,3.76547531 9.41524549,3.72424136 C9.43810552,3.65332151 9.46155279,3.58234132 9.48531401,3.51195235 C9.49948954,3.46956411 9.51369575,3.42793855 9.52800835,3.38654142 C9.5943913,3.19539274 9.6633957,3.00757098 9.73472582,2.82461246 C9.75667974,2.76717612 9.77905525,2.71081917 9.80164508,2.6549707 C9.81872651,2.61385411 9.83576621,2.57230151 9.85292994,2.53102031 C10.0130661,2.14493225 10.183683,1.78484759 10.3639482,1.45219275 C10.8658739,0.522905381 11.4473915,-0.202215737 12.095649,-0.658178396 C12.1276505,-0.680687166 12.1607932,-0.700367731 12.1947802,-0.717271804 C13.2107034,-1.39191729 14.3412797,-1.4148293 15.4253498,-0.652330572 Z" id="形状结合" fill-opacity="0.8" fill="#FFFFFF" fill-rule="nonzero" transform="translate(12.000000, 12.000000) rotate(-45.000000) translate(-12.000000, -12.000000) "></path>
    </g>
</svg>