<?xml version="1.0" encoding="UTF-8"?>
<svg width="24px" height="24px" viewBox="0 0 24 24" version="1.1" xmlns="http://www.w3.org/2000/svg" xmlns:xlink="http://www.w3.org/1999/xlink">
    <title>ic_my_off_blue</title>
    <defs>
        <circle id="path-1" cx="11.75" cy="11.75" r="8.6"></circle>
    </defs>
    <g id="ic_my_off_blue" stroke="none" stroke-width="1" fill="none" fill-rule="evenodd">
        <path d="M11.9274382,1.00143758 L11.75,1 C5.87911546,1 1.09645327,5.71022477 1.00140398,11.5725788 L1,11.7417228 C1,17.6208922 5.71019853,22.4035469 11.5725618,22.498596 L11.741706,22.5 C17.6208845,22.5 22.4035467,17.7898088 22.498596,11.9274547 L22.5,11.7583108 C22.5,5.87914143 17.7898015,1.09648671 11.9274382,1.00143758 Z" id="路径" fill="#333333" fill-rule="nonzero"></path>
        <mask id="mask-2" fill="white">
            <use xlink:href="#path-1"></use>
        </mask>
        <g id="uxs-a"></g>
        <path d="M4.67539471,17.0055373 C5.19107985,15.9566336 6.5309971,12.8249882 11.752257,12.8249882 C16.9735169,12.8249882 18.3362554,15.9566336 18.8291193,17.0055373 C19.020678,17.413209 19.1505139,17.9621181 19.2186268,18.6522646 C19.302475,19.5019037 18.6816837,20.2586486 17.8320452,20.3425023 C17.7815882,20.3474821 17.7309168,20.3499765 17.6802147,20.3499765 L5.81322354,20.3499765 C4.95944548,20.3499765 4.2673216,19.6578682 4.2673216,18.8040902 C4.2673216,18.7547022 4.26968835,18.7053426 4.27441369,18.6561813 C4.34092678,17.9641946 4.47458712,17.4139799 4.67539471,17.0055373 Z" id="路径" fill="#666666" fill-rule="nonzero" mask="url(#mask-2)"></path>
        <path d="M11.75,5.3 C9.96888168,5.3 8.525,6.74387943 8.525,8.52499496 C8.525,10.3061105 9.96888168,11.7499899 11.75,11.7499899 C13.5311183,11.7499899 14.975,10.3061105 14.975,8.52499496 C14.975,6.74387943 13.5311183,5.3 11.75,5.3 Z" id="路径" fill="#666666" fill-rule="nonzero" mask="url(#mask-2)"></path>
    </g>
</svg>