<svg width="11.000000" height="11.000000" viewBox="0 0 11 11" fill="none" xmlns="http://www.w3.org/2000/svg" xmlns:xlink="http://www.w3.org/1999/xlink">
	<desc>
			Created with Pixso.
	</desc>
	<defs/>
	<path id="形状" d="M10.6567 -0.701294C10.9497 -0.409302 10.9497 0.0640869 10.6567 0.356079L0.403809 10.5774C0.11084 10.8694 -0.36377 10.8694 -0.656738 10.5774C-0.949707 10.2854 -0.949707 9.81201 -0.656738 9.52002L3.93994 4.93732L-0.656738 0.356079C-0.949707 0.0640869 -0.949707 -0.409302 -0.656738 -0.701294C-0.36377 -0.993286 0.11084 -0.993286 0.403809 -0.701294L5.00098 3.87994L9.59619 -0.701294C9.88916 -0.993286 10.3643 -0.993286 10.6567 -0.701294ZM10.6567 10.5775C10.9492 10.2855 10.9492 9.81207 10.6567 9.52008L6.76758 5.64301L5.70703 6.70038L9.5957 10.5775C9.88867 10.8694 10.3638 10.8694 10.6567 10.5775Z" clip-rule="evenodd" fill="#FFFFFF" fill-opacity="0.901961" fill-rule="evenodd"/>
</svg>
