<svg width="120.000000" height="120.000000" viewBox="0 0 120 120" fill="none" xmlns="http://www.w3.org/2000/svg" xmlns:xlink="http://www.w3.org/1999/xlink">
	<desc>
			Created with Pixso.
	</desc>
	<defs>
		<filter id="filter_26_238_dd" x="27.195129" y="86.868172" width="65.609741" height="19.251747" filterUnits="userSpaceOnUse" color-interpolation-filters="sRGB">
			<feFlood flood-opacity="0" result="BackgroundImageFix"/>
			<feBlend mode="normal" in="SourceGraphic" in2="BackgroundImageFix" result="shape"/>
			<feGaussianBlur stdDeviation="0.684963" result="effect_layerBlur_1"/>
		</filter>
	</defs>
	<rect id="EmptyPage/05 SearchNoResult" width="120.000000" height="120.000000" fill="#F1F3F5" fill-opacity="0"/>
	<g opacity="0.150000">
		<mask id="mask_26_242" fill="white">
			<path id="shadow" d="M29.2501 96.5148L72.2579 96.5148C72.3752 96.5148 72.5111 96.5191 72.6628 96.5238C74.4426 96.5799 78.4008 96.7047 80.2104 90.7879C86.6692 92.1758 90.75 94.2176 90.75 96.4941C90.75 100.675 76.9828 104.065 60 104.065C43.0453 104.065 29.2955 100.687 29.2501 96.5148Z" clip-rule="evenodd" fill="" fill-opacity="1.000000" fill-rule="evenodd"/>
		</mask>
		<path id="shadow" d="M29.2501 96.5148L72.2579 96.5148C72.3752 96.5148 72.5111 96.5191 72.6628 96.5238C74.4426 96.5799 78.4008 96.7047 80.2104 90.7879C86.6692 92.1758 90.75 94.2176 90.75 96.4941C90.75 100.675 76.9828 104.065 60 104.065C43.0453 104.065 29.2955 100.687 29.2501 96.5148Z" clip-rule="evenodd" fill="#A1A7B3" fill-opacity="1.000000" fill-rule="evenodd" mask="url(#mask_26_242)"/>
		<path id="shadow" d="" clip-rule="evenodd" fill="#979797" fill-opacity="0.000000" fill-rule="evenodd"/>
	</g>
	<g opacity="0.600000">
		<mask id="mask_26_245" fill="white">
			<path id="形状结合" d="M98.1266 24.8395C98.1299 24.7402 98.1316 24.6404 98.1316 24.5403C98.1316 19.7487 94.618 15.4449 89.6271 15.4449C84.6364 15.4449 81.1227 19.7487 81.1227 24.5403C81.1227 24.6404 81.1243 24.7402 81.1276 24.8395L81.1227 24.8395L81.1227 33.8145L98.1316 33.8145L98.1316 24.8395L98.1266 24.8395Z" clip-rule="evenodd" fill="" fill-opacity="1.000000" fill-rule="evenodd"/>
		</mask>
		<path id="形状结合" d="M98.1266 24.8395C98.1299 24.7402 98.1316 24.6404 98.1316 24.5403C98.1316 19.7487 94.618 15.4449 89.6271 15.4449C84.6364 15.4449 81.1227 19.7487 81.1227 24.5403C81.1227 24.6404 81.1243 24.7402 81.1276 24.8395L81.1227 24.8395L81.1227 33.8145L98.1316 33.8145L98.1316 24.8395L98.1266 24.8395Z" clip-rule="evenodd" fill="#A1A7B3" fill-opacity="1.000000" fill-rule="evenodd" mask="url(#mask_26_245)"/>
		<path id="形状结合" d="" clip-rule="evenodd" fill="#979797" fill-opacity="0.000000" fill-rule="evenodd"/>
	</g>
	<g opacity="0.300000">
		<mask id="mask_26_254" fill="white">
			<path id="形状结合" d="M25.3334 96.494L25.3334 96.5147L72.2579 96.5147C72.3752 96.5147 72.5111 96.519 72.6628 96.5238C74.7389 96.5892 79.779 96.748 80.9156 87.3023C72.7586 85.4288 66.675 78.1241 66.675 69.3986C66.675 60.5911 72.8734 53.2314 81.1459 51.4435L81.1459 27.5839C81.1459 27.5839 81.1227 25.9678 81.1459 24.3124C81.1691 22.657 81.6574 20.8551 83.067 18.9023C84.1818 17.3578 86.3876 15.5965 89.754 15.5965L32.8566 15.5965C32.8566 15.5965 25.3334 17.7781 25.3334 25.494L25.3334 80.081L5.60571 80.081C5.60571 80.081 5.53485 87.1041 7.33514 90.6729C9.13544 94.2417 12.2927 96.494 13.2834 96.494L25.3334 96.494Z" clip-rule="evenodd" fill="" fill-opacity="1.000000" fill-rule="evenodd"/>
		</mask>
		<path id="形状结合" d="M25.3334 96.494L25.3334 96.5147L72.2579 96.5147C72.3752 96.5147 72.5111 96.519 72.6628 96.5238C74.7389 96.5892 79.779 96.748 80.9156 87.3023C72.7586 85.4288 66.675 78.1241 66.675 69.3986C66.675 60.5911 72.8734 53.2314 81.1459 51.4435L81.1459 27.5839C81.1459 27.5839 81.1227 25.9678 81.1459 24.3124C81.1691 22.657 81.6574 20.8551 83.067 18.9023C84.1818 17.3578 86.3876 15.5965 89.754 15.5965L32.8566 15.5965C32.8566 15.5965 25.3334 17.7781 25.3334 25.494L25.3334 80.081L5.60571 80.081C5.60571 80.081 5.53485 87.1041 7.33514 90.6729C9.13544 94.2417 12.2927 96.494 13.2834 96.494L25.3334 96.494Z" clip-rule="evenodd" fill="#A1A7B3" fill-opacity="1.000000" fill-rule="evenodd" mask="url(#mask_26_254)"/>
		<path id="形状结合" d="" clip-rule="evenodd" fill="#979797" fill-opacity="0.000000" fill-rule="evenodd"/>
	</g>
	<g opacity="0.400000">
		<path id="矩形" d="M5.6 80.08L62.72 80.08C62.72 80.08 62.16 88.63 64.91 92.22C67.66 95.81 73.06 96.49 73.06 96.49C73.06 96.49 14.27 96.49 13.28 96.49C12.29 96.49 9.13 94.24 7.33 90.67C5.53 87.1 5.6 80.08 5.6 80.08Z" fill="#A1A7B3" fill-opacity="1.000000" fill-rule="evenodd"/>
		<path id="矩形" d="" fill="#979797" fill-opacity="0" fill-rule="evenodd"/>
	</g>
	<g opacity="0.600000">
		<mask id="mask_26_261" fill="white">
			<path id="形状结合" d="M96.7894 83.5216L100.401 87.1333C100.018 88.0791 100.21 89.2033 100.977 89.9703L110.218 99.2115C111.241 100.234 112.9 100.234 113.922 99.2115L114.175 98.9587C115.198 97.9358 115.198 96.2773 114.175 95.2544L104.934 86.0132C104.167 85.2462 103.043 85.0543 102.097 85.4374L98.5298 81.8702C97.9863 82.4576 97.4048 83.0093 96.7894 83.5216Z" clip-rule="evenodd" fill="" fill-opacity="1.000000" fill-rule="evenodd"/>
		</mask>
		<path id="形状结合" d="M96.7894 83.5216L100.401 87.1333C100.018 88.0791 100.21 89.2033 100.977 89.9703L110.218 99.2115C111.241 100.234 112.9 100.234 113.922 99.2115L114.175 98.9587C115.198 97.9358 115.198 96.2773 114.175 95.2544L104.934 86.0132C104.167 85.2462 103.043 85.0543 102.097 85.4374L98.5298 81.8702C97.9863 82.4576 97.4048 83.0093 96.7894 83.5216Z" clip-rule="evenodd" fill="#A1A7B3" fill-opacity="1.000000" fill-rule="evenodd" mask="url(#mask_26_261)"/>
		<path id="形状结合" d="" clip-rule="evenodd" fill="#979797" fill-opacity="0.000000" fill-rule="evenodd"/>
	</g>
	<g opacity="0.500000">
		<mask id="mask_26_264" fill="white">
			<path id="形状结合" d="M85.0446 51.0267C74.8994 51.0267 66.675 59.2511 66.675 69.3964C66.675 79.5416 74.8994 87.766 85.0446 87.766C95.1899 87.766 103.414 79.5416 103.414 69.3964C103.414 59.2511 95.1899 51.0267 85.0446 51.0267ZM85.0446 55.1089C77.1539 55.1089 70.7571 61.5056 70.7571 69.3964C70.7571 77.2871 77.1539 83.6839 85.0446 83.6839C92.9354 83.6839 99.3322 77.2871 99.3322 69.3964C99.3322 61.5056 92.9354 55.1089 85.0446 55.1089Z" clip-rule="evenodd" fill="" fill-opacity="1.000000" fill-rule="evenodd"/>
		</mask>
		<path id="形状结合" d="M85.0446 51.0267C74.8994 51.0267 66.675 59.2511 66.675 69.3964C66.675 79.5416 74.8994 87.766 85.0446 87.766C95.1899 87.766 103.414 79.5416 103.414 69.3964C103.414 59.2511 95.1899 51.0267 85.0446 51.0267ZM85.0446 55.1089C77.1539 55.1089 70.7571 61.5056 70.7571 69.3964C70.7571 77.2871 77.1539 83.6839 85.0446 83.6839C92.9354 83.6839 99.3322 77.2871 99.3322 69.3964C99.3322 61.5056 92.9354 55.1089 85.0446 55.1089Z" clip-rule="evenodd" fill="#A1A7B3" fill-opacity="1.000000" fill-rule="evenodd" mask="url(#mask_26_264)"/>
		<path id="形状结合" d="" clip-rule="evenodd" fill="#979797" fill-opacity="0.000000" fill-rule="evenodd"/>
	</g>
	<g opacity="0.200000">
		<circle id="椭圆形" cx="85.044617" cy="69.396416" r="14.287500" fill="#A1A7B3" fill-opacity="1.000000"/>
		<circle id="椭圆形" cx="85.044617" cy="69.396416" r="13.787500" stroke="#979797" stroke-opacity="0" stroke-width="1.000000"/>
	</g>
	<g opacity="0.200000">
		<rect id="矩形" x="95.427734" y="66.416351" rx="0.680357" width="8.164286" height="1.360714" transform="rotate(105 95.427734 66.416351)" fill="#A1A7B3" fill-opacity="1.000000"/>
		<rect id="矩形" x="94.815369" y="66.769905" rx="0.180357" width="7.164286" height="0.360714" transform="rotate(105 94.815369 66.769905)" stroke="#979797" stroke-opacity="0" stroke-width="1.000000"/>
	</g>
	<g opacity="0.200000">
		<rect id="矩形备份" x="92.858398" y="63.625366" rx="0.680357" width="4.082143" height="1.360714" transform="rotate(105 92.858398 63.625366)" fill="#A1A7B3" fill-opacity="1.000000"/>
		<rect id="矩形备份" x="92.246033" y="63.978920" rx="0.180357" width="3.082143" height="0.360714" transform="rotate(105 92.246033 63.978920)" stroke="#979797" stroke-opacity="0" stroke-width="1.000000"/>
	</g>
	<g opacity="0.300000">
		<mask id="mask_26_274" fill="white">
			<path id="形状结合" d="M58.9986 49.9511C58.3984 49.4988 58.2785 48.6457 58.7308 48.0455C59.183 47.4453 60.0362 47.3254 60.6364 47.7777L66.3115 52.0541C66.9116 52.5064 67.0316 53.3596 66.5793 53.9597C66.127 54.5599 65.2738 54.6798 64.6736 54.2276L58.9986 49.9511ZM53.2435 56.8616C52.962 57.5584 53.2986 58.3515 53.9954 58.633L60.5839 61.2949C61.2807 61.5764 62.0738 61.2398 62.3553 60.543C62.6368 59.8462 62.3002 59.0532 61.6034 58.7717L55.0149 56.1097C54.3181 55.8282 53.525 56.1648 53.2435 56.8616ZM65.238 40.9445C64.6458 41.4071 64.5408 42.2623 65.0034 42.8545L69.3783 48.454C69.8409 49.0462 70.6961 49.1512 71.2883 48.6886C71.8805 48.2259 71.9855 47.3708 71.5228 46.7786L67.1479 41.179C66.6853 40.5868 65.8301 40.4818 65.238 40.9445Z" clip-rule="evenodd" fill="" fill-opacity="1.000000" fill-rule="evenodd"/>
		</mask>
		<path id="形状结合" d="M58.9986 49.9511C58.3984 49.4988 58.2785 48.6457 58.7308 48.0455C59.183 47.4453 60.0362 47.3254 60.6364 47.7777L66.3115 52.0541C66.9116 52.5064 67.0316 53.3596 66.5793 53.9597C66.127 54.5599 65.2738 54.6798 64.6736 54.2276L58.9986 49.9511ZM53.2435 56.8616C52.962 57.5584 53.2986 58.3515 53.9954 58.633L60.5839 61.2949C61.2807 61.5764 62.0738 61.2398 62.3553 60.543C62.6368 59.8462 62.3002 59.0532 61.6034 58.7717L55.0149 56.1097C54.3181 55.8282 53.525 56.1648 53.2435 56.8616ZM65.238 40.9445C64.6458 41.4071 64.5408 42.2623 65.0034 42.8545L69.3783 48.454C69.8409 49.0462 70.6961 49.1512 71.2883 48.6886C71.8805 48.2259 71.9855 47.3708 71.5228 46.7786L67.1479 41.179C66.6853 40.5868 65.8301 40.4818 65.238 40.9445Z" clip-rule="evenodd" fill="#A1A7B3" fill-opacity="1.000000" fill-rule="evenodd" mask="url(#mask_26_274)"/>
		<path id="形状结合" d="" clip-rule="evenodd" fill="#979797" fill-opacity="0.000000" fill-rule="evenodd"/>
	</g>
</svg>
