<svg width="78.000000" height="25.000000" viewBox="0 0 78 25" fill="none" xmlns="http://www.w3.org/2000/svg" xmlns:xlink="http://www.w3.org/1999/xlink">
	<desc>
			Created with Pixso.
	</desc>
	<defs/>
	<line id="line" x1="2.000000" y1="19.775391" x2="2.000000" y2="3.513672" stroke="#040000" stroke-opacity="1.000000" stroke-width="4.000000"/>
	<path id="polyline" d="" fill="#000000" fill-opacity="0" fill-rule="nonzero"/>
	<path id="polyline" d="M2 12.32L15.72 12.32L15.72 19.77" stroke="#040000" stroke-opacity="1.000000" stroke-width="4.000000"/>
	<path id="line" d="" fill="#000000" fill-opacity="0" fill-rule="nonzero"/>
	<path id="line" d="M15.72 3.51L15.72 8.6" stroke="#0A59F7" stroke-opacity="1.000000" stroke-width="4.000000"/>
	<path id="path" d="M25.6 3.83L28.1 3.83L30.64 13.6L33.18 3.83L39.79 3.83L39.79 19.89L35.67 19.89L35.67 7.65L32.51 19.89L28.77 19.89L25.6 7.65L25.6 3.83Z" fill="#000000" fill-opacity="1.000000" fill-rule="nonzero"/>
	<path id="path" d="M24.62 7.65L24.62 19.89L20.5 19.89L20.5 3.83L24.62 3.83L24.62 7.65Z" fill="#0A59F7" fill-opacity="1.000000" fill-rule="evenodd"/>
	<path id="circle" d="M55.79 8.37C56 8.69 56.19 9.03 56.34 9.39C56.63 10.08 56.79 10.84 56.79 11.64C56.79 13.26 56.12 14.73 55.04 15.8C53.96 16.87 52.47 17.52 50.82 17.52C49.18 17.52 47.68 16.87 46.6 15.8C45.52 14.73 44.85 13.26 44.85 11.64C44.85 10.84 45.01 10.08 45.31 9.39C45.46 9.03 45.64 8.69 45.86 8.37" stroke="#040000" stroke-opacity="1.000000" stroke-width="4.000000"/>
	<path id="circle" d="M46.6 7.48C47.68 6.41 49.17 5.75 50.82 5.75C52.47 5.75 53.96 6.41 55.05 7.48" stroke="#0A59F7" stroke-opacity="1.000000" stroke-width="4.000000"/>
	<path id="path" d="M69.35 15.62C68.3 15.62 67.29 15.43 66.31 15.03C65.34 14.64 64.48 14.07 63.74 13.34C62.99 12.61 62.42 11.76 62.02 10.8C61.61 9.85 61.41 8.85 61.41 7.81C61.41 6.78 61.61 5.78 62.01 4.82C62.42 3.86 62.99 3.02 63.73 2.28C64.48 1.55 65.33 0.99 66.31 0.59C67.28 0.19 68.29 0 69.34 0C70.39 0 71.41 0.19 72.38 0.59C73.35 0.99 74.21 1.55 74.95 2.29C75.69 3.02 76.27 3.87 76.67 4.83C77.07 5.79 77.27 6.78 77.27 7.82L73.37 7.82C73.37 7.29 73.27 6.79 73.07 6.3C72.86 5.82 72.57 5.39 72.19 5.02C71.82 4.64 71.38 4.36 70.89 4.16C70.4 3.95 69.88 3.85 69.35 3.85C68.82 3.85 68.3 3.95 67.81 4.16C67.32 4.36 66.88 4.64 66.5 5.02C66.13 5.39 65.84 5.82 65.63 6.3C65.43 6.79 65.33 7.29 65.33 7.82C65.33 8.34 65.43 8.85 65.63 9.34C65.84 9.82 66.13 10.25 66.5 10.62C66.88 10.99 67.32 11.28 67.81 11.48C68.3 11.68 68.82 11.78 69.35 11.78L69.35 15.62Z" fill="#040000" fill-opacity="1.000000" fill-rule="nonzero"/>
	<path id="path" d="M69.35 24.02C68.3 24.02 67.29 23.82 66.32 23.42C65.35 23.03 64.49 22.46 63.75 21.73C63.01 21 62.44 20.15 62.04 19.2C61.63 18.24 61.43 17.24 61.43 16.21L65.33 16.21C65.33 16.73 65.43 17.24 65.63 17.73C65.84 18.21 66.13 18.64 66.5 19.01C66.88 19.38 67.32 19.67 67.81 19.87C68.3 20.07 68.82 20.17 69.35 20.17C69.88 20.17 70.4 20.07 70.89 19.87C71.38 19.67 71.82 19.38 72.19 19.01C72.57 18.64 72.86 18.21 73.07 17.73C73.27 17.24 73.37 16.73 73.37 16.21C73.37 15.68 73.27 15.18 73.07 14.69C72.86 14.21 72.57 13.78 72.19 13.41C71.82 13.03 71.38 12.75 70.89 12.55C70.4 12.34 69.88 12.24 69.35 12.24L69.35 8.4C70.38 8.44 71.36 8.66 72.3 9.08C73.24 9.49 74.06 10.06 74.78 10.79C75.49 11.51 76.04 12.35 76.42 13.29C76.81 14.23 77 15.2 77 16.21C77 17.23 76.81 18.2 76.42 19.14C76.04 20.08 75.49 20.91 74.78 21.64C74.06 22.37 73.24 22.94 72.3 23.35C71.36 23.76 70.38 23.99 69.35 24.02Z" fill="#0A59F7" fill-opacity="1.000000" fill-rule="nonzero"/>
</svg>
