<?xml version="1.0" encoding="UTF-8"?>
<svg width="40px" height="38px" viewBox="0 0 40 38" version="1.1" xmlns="http://www.w3.org/2000/svg" xmlns:xlink="http://www.w3.org/1999/xlink">
    <title>编组 8@1x</title>
    <defs>
        <linearGradient x1="50%" y1="0%" x2="50%" y2="100%" id="linearGradient-1">
            <stop stop-color="#00E2BF" offset="0%"></stop>
            <stop stop-color="#484CFF" offset="100%"></stop>
        </linearGradient>
        <linearGradient x1="50%" y1="0%" x2="50%" y2="100%" id="linearGradient-2">
            <stop stop-color="#FFFFFF" offset="0%"></stop>
            <stop stop-color="#FFFFFF" stop-opacity="0.117573345" offset="100%"></stop>
        </linearGradient>
        <linearGradient x1="50%" y1="0%" x2="50%" y2="100%" id="linearGradient-3">
            <stop stop-color="#00CFFF" offset="0%"></stop>
            <stop stop-color="#4259FA" offset="100%"></stop>
        </linearGradient>
        <linearGradient x1="50%" y1="0%" x2="50%" y2="100%" id="linearGradient-4">
            <stop stop-color="#00E1C7" offset="0%"></stop>
            <stop stop-color="#00E2BF" offset="79.7046292%"></stop>
            <stop stop-color="#09CFC7" offset="100%"></stop>
        </linearGradient>
        <linearGradient x1="50%" y1="0%" x2="50%" y2="100%" id="linearGradient-5">
            <stop stop-color="#1CA7D8" offset="0%"></stop>
            <stop stop-color="#2C86E7" offset="100%"></stop>
        </linearGradient>
    </defs>
    <g id="页面-1" stroke="none" stroke-width="1" fill="none" fill-rule="evenodd">
        <g id="浅色背景" transform="translate(-68.000000, -114.000000)">
            <g id="Bottom-tab/item/normal备份-3" transform="translate(52.000000, 114.000000)">
                <g id="编组-8" transform="translate(16.000000, 0.000000)">
                    <rect id="矩形" x="0" y="0" width="40" height="38"></rect>
                    <g id="编组-10备份-2" transform="translate(5.000000, 1.000000)">
                        <ellipse id="椭圆形" fill="url(#linearGradient-1)" cx="16.5549698" cy="23.2258065" rx="12.8467246" ry="12.7741935"></ellipse>
                        <g id="编组-26备份">
                            <g id="编组-25" transform="translate(12.927958, 0.000000)">
                                <polygon id="矩形备份-51" fill="#53CDE9" points="1.66481778 17.3876861 9.16430796 17.3876861 10.8291257 19.5611469 -2.87263447e-13 19.5611469"></polygon>
                                <polygon id="矩形备份-52" fill="#51DDE5" points="1.57514556 13.7565285 9.05708698 13.7565285 9.05708698 16.8507423 1.57514556 16.8507423"></polygon>
                                <polygon id="矩形备份-53" fill="#68F4E9" points="3.34718432 6.21464157 7.28504822 6.21464157 7.28504822 8.06100798 3.34718432 8.06100798"></polygon>
                                <path d="M5.5814911,0 L5.5814911,2.99822679 C5.5814911,3.39581881 5.77372759,3.80728396 6.15820058,4.23262224 C6.41029688,4.37248195 6.62400573,4.56925906 6.78294377,4.8039389 L6.89126183,4.89028672 L6.83774665,4.89000097 C6.99700259,5.15647148 7.08815503,5.46587582 7.08815503,5.79589537 L7.08815503,5.79589537 L3.34718432,5.79589537 C3.34718432,5.46587582 3.43833676,5.15647148 3.5975927,4.89000097 L3.54407751,4.89028672 L3.65239558,4.8039389 C3.81133362,4.56925906 4.02504247,4.37248195 4.27592868,4.23064356 C4.66161176,3.80728396 4.85384825,3.39581881 4.85384825,2.99822679 L4.85384825,0 L5.5814911,0 Z" id="形状结合" fill="#71F8EC"></path>
                                <g id="编组-18备份" transform="translate(1.575146, 8.331600)" fill="#4EF9E0">
                                    <path d="M5.10702591e-15,4.89028672 C1.12027605,3.66170763 1.69752931,2.14547818 1.73175975,0.341598368 L1.73181441,0 L5.75012701,0 L5.75018167,0.341598368 C5.78441211,2.14547818 6.36166537,3.66170763 7.48194142,4.89028672 L7.48194142,4.89028672 L5.10702591e-15,4.89028672 Z" id="形状结合"></path>
                                </g>
                            </g>
                            <g id="编组-25" opacity="0.8" transform="translate(12.927958, 0.000000)">
                                <path d="M10.8291257,20.1183014 L10.8289779,28.9668135 L10.5648882,28.8981464 C7.59839127,27.8768476 5.30571758,26.3594306 3.6868671,24.3458955 C2.40911253,22.7566174 1.35458809,21.3469193 0.523293787,20.1168012 L10.8291257,20.1183014 Z" id="形状结合" fill="url(#linearGradient-2)"></path>
                                <polygon id="矩形备份-51" fill="#FFFFFF" points="1.66481778 17.3876861 9.16430796 17.3876861 10.8291257 19.5611469 -2.87263447e-13 19.5611469"></polygon>
                                <polygon id="矩形备份-52" fill="#FFFFFF" points="1.57514556 13.7565285 9.05708698 13.7565285 9.05708698 16.8507423 1.57514556 16.8507423"></polygon>
                                <polygon id="矩形备份-53" fill="#FFFFFF" points="3.34718432 5.9770171 7.28504822 5.9770171 7.28504822 8.06100798 3.34718432 8.06100798"></polygon>
                                <path d="M5.5814911,0 L5.5814911,2.99822679 C5.5814911,3.39581881 5.77372759,3.80728396 6.15820058,4.23262224 C6.41029688,4.37248195 6.62400573,4.56925906 6.78294377,4.8039389 L6.89126183,4.89028672 L6.83774665,4.89000097 C6.99700259,5.15647148 7.08815503,5.46587582 7.08815503,5.79589537 L7.08815503,5.79589537 L3.34718432,5.79589537 C3.34718432,5.46587582 3.43833676,5.15647148 3.5975927,4.89000097 L3.54407751,4.89028672 L3.65239558,4.8039389 C3.81133362,4.56925906 4.02504247,4.37248195 4.27592868,4.23064356 C4.66161176,3.80728396 4.85384825,3.39581881 4.85384825,2.99822679 L4.85384825,0 L5.5814911,0 Z" id="形状结合" fill="#FFFFFF"></path>
                                <g id="编组-18备份" transform="translate(1.575146, 8.331600)" fill="#FFFFFF">
                                    <path d="M5.10702591e-15,4.89028672 C1.12027605,3.66170763 1.69752931,2.14547818 1.73175975,0.341598368 L1.73181441,0 L5.75012701,0 L5.75018167,0.341598368 C5.78441211,2.14547818 6.36166537,3.66170763 7.48194142,4.89028672 L7.48194142,4.89028672 L5.10702591e-15,4.89028672 Z" id="形状结合"></path>
                                </g>
                            </g>
                            <path d="M8.66046091,18.5273398 L9.88248635,19.3726054 L11.9713199,19.3726054 C12.3663339,19.3726054 12.7347853,19.5715465 12.9514685,19.9018258 C13.8211348,21.2274117 14.9683628,22.7762852 16.3931523,24.5484462 C18.0120028,26.5619813 20.3046765,28.0793982 23.2711734,29.1006971 L23.2711734,29.1006971 L23.6298218,29.1949871 C24.0161624,29.2965575 24.2854686,29.6458169 24.2854686,30.0452861 L24.2854686,30.0452861 L24.2854686,32.0868731 C24.2854686,32.100738 24.2844849,32.1145854 24.2825248,32.128311 C24.2596393,32.2885703 24.1111711,32.3999338 23.9509194,32.3769944 C20.6465949,31.9051269 18.0495448,31.8361044 16.1597694,32.1699267 C14.350496,32.4895287 13.1077374,33.2764638 12.4314936,34.5307323 C12.32922,34.7204249 12.1310965,34.8386908 11.9155897,34.8387097 L11.9155897,34.8387097 L9.04670909,34.8387097 C8.93459261,34.8387097 8.83230146,34.774744 8.7832195,34.6739419 L8.7832195,34.6739419 L8.3626003,33.8100949 C8.33261537,33.7485134 8.26392366,33.7159727 8.19723011,33.7315739 C7.41217532,33.9177624 6.45035511,34.0108566 5.31176949,34.0108566 C4.64149737,34.0108566 4.235976,33.9785945 4.09520537,33.9140701 L4.079,33.9043398 L3.79600011,34.2365408 C3.75423951,34.2855278 3.6979474,34.3189383 3.63620249,34.3325819 L3.57297622,34.3394813 L0.0992065898,34.3394813 C0.0742510638,34.3394813 0.0501991654,34.3301412 0.0317839644,34.313299 C-0.00893035298,34.2760625 -0.0117496909,34.2128709 0.0254145117,34.1720905 C0.752047576,33.377591 1.07158155,32.8852198 0.984016421,32.6949768 C0.890457689,32.4917122 0.837739171,31.9393256 0.825860867,31.037817 L0.825860867,31.037817 L0.825860867,25.7095825 L1.72837643,20.3501972 C1.82341292,19.7858445 2.31205953,19.3726054 2.88435835,19.3726054 L2.88435835,19.3726054 L3.69622301,19.3726054 L4.53391893,18.7326782 C4.70826561,18.5994924 4.92157424,18.5273398 5.14097163,18.5273398 L5.14097163,18.5273398 L8.66046091,18.5273398 Z M22.841124,29.5689933 L22.8413132,30.5474943 C23.1014447,30.5683252 23.3557521,30.5830209 23.6042357,30.5915812 L23.6042357,30.5915812 L23.6042357,29.6775034 L23.3521214,29.6486349 C23.1832931,29.6269554 23.0129606,29.6004082 22.841124,29.5689933 L22.841124,29.5689933 Z M21.6360794,29.2763335 L21.6372031,30.4131602 C21.8929152,30.4492347 22.1436828,30.4801004 22.3895059,30.5057572 L22.3895059,30.5057572 L22.3885408,29.4757932 C22.1407547,29.4191263 21.8899343,29.3526398 21.6360794,29.2763335 L21.6360794,29.2763335 Z M20.1292057,28.7234354 L20.1301072,30.1519402 C20.4902323,30.2251812 20.8418441,30.2894539 21.1849426,30.3447582 L21.1849426,30.3447582 L21.1841458,29.1312075 C20.8379857,29.0130388 20.486339,28.8771147 20.1292057,28.7234354 L20.1292057,28.7234354 Z M18.6215175,27.9145866 L18.6214751,29.7914822 C18.8768116,29.8658099 19.131863,29.9322406 19.3866294,29.9907742 L19.3866294,29.9907742 L19.6761562,30.0544981 L19.6767533,28.5177581 C19.3500267,28.3574452 18.9982814,28.1563881 18.6215175,27.9145866 L18.6215175,27.9145866 Z M17.1149858,26.8352895 L17.1148418,29.2626146 C17.4671113,29.4072894 17.8188429,29.537064 18.1700367,29.6519385 L18.1700367,29.6519385 L18.1702934,27.6137815 C17.8363001,27.3832333 17.4845309,27.1237359 17.1149858,26.8352895 L17.1149858,26.8352895 Z M14.6901562,24.7624981 L14.6901562,28.0366053 L15.1843342,28.3236292 C15.6781638,28.6010002 16.170948,28.8494127 16.6626869,29.0688666 L16.6626869,29.0688666 L16.6636454,26.4757829 C16.0511066,25.9784469 15.3932769,25.407352 14.6901562,24.7624981 L14.6901562,24.7624981 Z" id="形状结合" fill="#FFFFFF"></path>
                            <path d="M8.7537874,18.2271198 L9.97613079,19.0726054 L11.5443536,19.0726054 C11.9713662,19.0726054 12.3773432,19.2580064 12.657023,19.5807202 C13.8313275,20.9359711 15.154653,22.5292094 16.6269579,24.3604702 C18.1323143,26.2328408 20.234634,27.6637583 22.928825,28.6598388 C23.4920437,28.8289186 23.8515956,28.9904486 24.0828572,29.1476891 C24.4430452,29.3925899 24.5454585,29.6418523 24.5774716,29.907587 L24.5774716,29.907587 L24.5866681,32.4008598 C20.8139684,32.0999928 18.1506933,32.0120589 16.2281367,32.4620327 C14.4195282,32.885337 13.1320165,33.5352997 12.383631,34.4377899 L12.383631,34.4377899 L8.85180032,34.7379615 C8.68603313,34.3828378 8.55634303,34.1456507 8.44296593,33.9954277 C7.62089949,33.9789646 6.9135286,34.0340946 5.99621964,34.0340946 C5.18553246,34.0340946 4.61336604,33.9896802 4.27851386,33.9078244 L4.27851386,33.9078244 L0.559497885,34.7122806 C0.624877974,34.0767892 0.705788508,33.6571577 0.762413233,33.372939 C0.711912852,32.6976908 0.62232538,32.1076089 0.533230472,31.1327348 L0.533230472,31.1327348 L0.525826778,25.6847017 L1.43254179,20.300379 C1.4877178,19.9727287 1.64854432,19.6856451 1.87653071,19.4716228 C2.11011665,19.2523439 2.41424978,19.1098638 2.74749142,19.0789326 L2.74749142,19.0789326 L3.59386077,19.0732821 L4.35180312,18.4942797 C4.53862253,18.3515659 4.75985441,18.2627587 4.99156627,18.2359523 L4.99156627,18.2359523 L8.7537874,18.2271198 Z" id="形状结合" stroke="url(#linearGradient-3)" stroke-width="0.6"></path>
                            <path d="M15.4282298,11.2662549 C15.9552951,9.77523502 16.2188277,8.63188378 16.2188277,7.83620121 C16.2188277,7.04051863 16.2188277,6.27803203 16.2188277,5.54874141 C16.278596,5.00426623 16.4657983,4.58527773 16.7804347,4.29177589 C17.2523893,3.85152314 17.5430081,3.33646349 17.5430081,3.11720559 C17.5430081,2.97103365 17.5430081,1.93196512 17.5430081,0 L18.6098232,0 L18.6098232,3.11720559 C18.6937596,3.50643392 18.9151003,3.8294567 19.2738456,4.08627393 C19.8119635,4.47149978 20.2130061,5.07441994 20.2130061,5.68189633 C20.2130061,6.08688059 20.2130061,6.84936719 20.2130061,7.96935613 C20.1891565,9.328551 20.3299779,10.3526204 20.6354702,11.0415643 C21.0937086,12.0749802 22.5648463,13.5997631 22.5648463,13.7565285" id="路径-2" stroke="url(#linearGradient-4)" stroke-width="0.580645161" stroke-linecap="round"></path>
                            <line x1="16.4720354" y1="5.9770171" x2="20.0161129" y2="5.9770171" id="路径-3" stroke="#00E2C3" stroke-width="0.5"></line>
                            <line x1="16.2751422" y1="8.29959774" x2="20.0161129" y2="8.29959774" id="路径-3备份" stroke="#00E1C1" stroke-width="0.5"></line>
                        </g>
                        <path d="M4.3107853,31.5372356 C4.84082919,31.8681097 5.53971603,32.0691804 6.30566977,32.0691804 C7.07656189,32.0691804 7.7795195,31.8655086 8.3107853,31.5308196" id="路径" stroke="#396CF2" stroke-linecap="round"></path>
                        <circle id="椭圆形" fill="#3377ED" cx="3.3107853" cy="28.5" r="1"></circle>
                        <circle id="椭圆形备份" fill="#3377ED" cx="9.3107853" cy="28.5" r="1"></circle>
                        <path d="M3.31939966,20.5643971 L10.4522334,20.5643971 C10.7759436,20.5643971 11.0383625,20.826816 11.0383625,21.1505261 L11.0383625,25.225208 C11.0383625,25.5489181 10.7759436,25.8113371 10.4522334,25.8113371 L2.73581083,25.8113371 C2.41210068,25.8113371 2.14968176,25.5489181 2.14968176,25.225208 C2.14968176,25.1974029 2.15166031,25.169633 2.15560242,25.1421087 L2.73919125,21.0674269 C2.78053432,20.778765 3.02779215,20.5643971 3.31939966,20.5643971 Z" id="矩形" fill="url(#linearGradient-5)"></path>
                    </g>
                </g>
            </g>
        </g>
    </g>
</svg>