<svg width="24.000000" height="24.000000" viewBox="0 0 24 24" fill="none" xmlns="http://www.w3.org/2000/svg" xmlns:xlink="http://www.w3.org/1999/xlink">
	<desc>
			Created with Pixso.
	</desc>
	<defs>
		<clipPath id="clip662_14868">
			<rect id="house_fill" width="24.000000" height="24.000000" fill="white" fill-opacity="0"/>
		</clipPath>
	</defs>
	<g clip-path="url(#clip662_14868)">
		<g opacity="0.000000">
			<rect id="rect" width="24.000000" height="24.000000" fill="#000000" fill-opacity="1.000000"/>
		</g>
		<path id="path" d="M20.37 12.07C18.55 10.33 16.71 8.59 14.87 6.86L13.05 5.16C12.75 4.87 12.39 4.73 11.98 4.73C11.58 4.73 11.22 4.87 10.91 5.16L3.64 12.07C3.52 12.19 3.42 12.34 3.35 12.5C3.29 12.66 3.25 12.82 3.25 12.98L3.25 19.99C3.25 20.41 3.35 20.79 3.55 21.13C3.75 21.47 4.03 21.75 4.37 21.95C4.72 22.15 5.1 22.25 5.51 22.25L18.49 22.25C18.89 22.25 19.27 22.15 19.61 21.95C19.96 21.75 20.23 21.47 20.43 21.13C20.63 20.79 20.73 20.41 20.73 19.99L20.73 12.96C20.73 12.78 20.7 12.62 20.63 12.47C20.57 12.31 20.48 12.18 20.37 12.07Z" fill="#B3B3B3" fill-opacity="1.000000" fill-rule="nonzero"/>
		<path id="path" d="M9.01 20.73L9.01 16.17C9.01 15.42 9.3 14.78 9.88 14.25C10.46 13.72 11.16 13.45 11.99 13.45C12.83 13.45 13.53 13.72 14.1 14.25C14.68 14.78 14.97 15.42 14.97 16.17L14.97 20.73L9.01 20.73Z" fill="#FFFFFF" fill-opacity="0.800000" fill-rule="nonzero"/>
		<path id="path" d="M1.48 11.47C1.61 11.59 1.79 11.66 2.01 11.68C2.23 11.68 2.41 11.62 2.53 11.5L10.6 3.84C11 3.45 11.47 3.26 12 3.26C12.54 3.26 13.01 3.45 13.41 3.84L21.47 11.47C21.62 11.61 21.8 11.69 22 11.69C22.21 11.69 22.39 11.61 22.53 11.45C22.66 11.3 22.72 11.12 22.72 10.92C22.72 10.71 22.65 10.53 22.5 10.39L14.44 2.76C14 2.32 13.48 2.03 12.88 1.88C12.29 1.73 11.7 1.73 11.1 1.88C10.51 2.03 9.99 2.32 9.54 2.76L1.5 10.39C1.34 10.53 1.26 10.71 1.26 10.92C1.26 11.12 1.34 11.31 1.48 11.47Z" fill="#CCCCCC" fill-opacity="1.000000" fill-rule="nonzero"/>
	</g>
</svg>
