<svg width="24.000000" height="24.000000" viewBox="0 0 24 24" fill="none" xmlns="http://www.w3.org/2000/svg" xmlns:xlink="http://www.w3.org/1999/xlink">
	<desc>
			Created with Pixso.
	</desc>
	<defs/>
	<path id="路径" d="M12.17 1.5L11.99 1.5C6.26 1.5 1.59 6.1 1.5 11.82L1.5 11.99C1.49 17.73 6.1 22.4 11.82 22.49L11.99 22.5C17.73 22.5 22.4 17.89 22.49 12.17L22.49 12C22.49 6.26 17.89 1.59 12.17 1.5Z" fill="#B3B3B3" fill-opacity="1.000000" fill-rule="evenodd"/>
	<path id="形状结合" d="M18.1934 17.8216C16.643 19.4704 14.4417 20.5001 11.9998 20.5001C9.55658 20.5001 7.35406 19.4692 5.80353 17.8187C6.45062 14.9952 8.97839 12.8891 11.9981 12.8891C15.0189 12.8891 17.5474 14.9967 18.1934 17.8216ZM11.9997 6.30756C10.3428 6.30756 8.99969 7.6507 8.99969 9.30756C8.99969 10.9644 10.3428 12.3076 11.9997 12.3076C13.6566 12.3076 14.9997 10.9644 14.9997 9.30756C14.9997 7.6507 13.6566 6.30756 11.9997 6.30756Z" clip-rule="evenodd" fill="#FFFFFF" fill-opacity="0.800000" fill-rule="evenodd"/>
</svg>
