<svg width="24.000000" height="24.000000" viewBox="0 0 24 24" fill="none" xmlns="http://www.w3.org/2000/svg" xmlns:xlink="http://www.w3.org/1999/xlink">
	<desc>
			Created with Pixso.
	</desc>
	<defs>
		<clipPath id="clip662_14687">
			<rect id="flipping_page_fill" width="24.000000" height="24.000000" fill="white" fill-opacity="0"/>
		</clipPath>
	</defs>
	<g clip-path="url(#clip662_14687)">
		<path id="path" d="M18.46 3C17.35 3 16.27 3.23 15.22 3.69C14.16 4.14 13.25 4.74 12.48 5.5L12.48 20.2C12.96 19.28 13.75 18.5 14.86 17.87C15.96 17.26 17.16 16.83 18.44 16.61L18.46 3ZM11.48 6.1C10.8 5.62 10.05 5.25 9.23 4.99C8.41 4.73 7.56 4.61 6.7 4.61C5.93 4.61 5.17 4.71 4.41 4.93C3.65 5.15 2.95 5.46 2.31 5.88C2.1 6.02 2 6.2 2 6.41L2 20.2C2 20.53 2.07 20.75 2.21 20.87C2.35 20.99 2.53 21.04 2.73 21.03C2.93 21.01 3.11 20.95 3.27 20.86C4.37 20.18 5.59 19.85 6.94 19.85C7.86 19.85 8.75 20.07 9.6 20.53C10.45 20.99 11.08 21.44 11.48 21.89L11.48 6.1Z" fill="#0A59F7" fill-opacity="1.000000" fill-rule="nonzero"/>
		<path id="path" d="M12.84 21.58C13.45 21.13 13.94 20.8 14.3 20.58C14.66 20.36 15.07 20.19 15.54 20.07C16.01 19.93 16.58 19.87 17.25 19.87C17.99 19.87 18.62 19.96 19.16 20.16C19.68 20.35 20.21 20.59 20.75 20.88C20.88 20.94 21.12 21 21.3 20.95C21.48 20.9 21.64 20.8 21.78 20.65C21.92 20.5 21.99 20.31 21.99 20.09L21.99 6.53C22 6.44 21.97 6.33 21.89 6.19C21.81 6.04 21.72 5.94 21.63 5.88C20.99 5.44 20.27 5.12 19.49 4.89L19.49 16.79C19.49 17 19.42 17.18 19.29 17.32C19.15 17.45 18.98 17.53 18.79 17.57C18.1 17.63 17.47 17.76 16.91 17.95C16.34 18.14 15.7 18.46 14.98 18.91C13.95 19.54 13.16 20.5 12.6 21.77L12.84 21.58Z" fill="#0A59F7" fill-opacity="0.601696" fill-rule="nonzero"/>
	</g>
</svg>
