<svg width="24.000000" height="24.000000" viewBox="0 0 24 24" fill="none" xmlns="http://www.w3.org/2000/svg" xmlns:xlink="http://www.w3.org/1999/xlink">
	<desc>
			Created with Pixso.
	</desc>
	<defs>
		<clipPath id="clip662_14940">
			<rect id="bookmark_filled_on_bookmark" width="24.000000" height="24.000000" fill="white" fill-opacity="0"/>
		</clipPath>
	</defs>
	<g clip-path="url(#clip662_14940)">
		<g opacity="0.000000">
			<rect id="rect" width="24.000000" height="24.000000" fill="#0A59F7" fill-opacity="1.000000"/>
		</g>
		<path id="path" d="M16.44 7.34C16.44 6.84 16.26 6.42 15.91 6.07C15.55 5.71 15.13 5.54 14.64 5.54L5.21 5.57C4.71 5.57 4.28 5.74 3.95 6.08C3.6 6.42 3.42 6.84 3.42 7.34L3.42 21.05C3.42 21.41 3.55 21.72 3.79 21.97C4.05 22.21 4.34 22.35 4.69 22.37C5.03 22.38 5.34 22.26 5.62 22.01L9.52 18.31C9.65 18.23 9.78 18.19 9.91 18.19C10.06 18.19 10.19 18.24 10.32 18.34L14.23 22.01C14.47 22.26 14.76 22.38 15.12 22.38C15.47 22.37 15.78 22.24 16.04 22C16.3 21.74 16.44 21.43 16.44 21.07L16.44 7.34Z" fill="#B3B3B3" fill-opacity="1.000000" fill-rule="nonzero"/>
		<path id="path" d="M17.81 17.95C18.16 18.27 18.45 18.46 18.67 18.53C18.89 18.59 19.17 18.55 19.49 18.43C19.69 18.33 19.86 18.2 20 18.02C20.14 17.84 20.22 17.64 20.26 17.42C20.27 17.37 20.28 17.31 20.28 17.23L20.28 3.5C20.28 3 20.1 2.58 19.76 2.24C19.42 1.9 18.99 1.73 18.48 1.73L9.05 1.73C8.55 1.73 8.13 1.9 7.79 2.24C7.44 2.58 7.27 3 7.27 3.5L7.27 4.27L8.76 4.27L8.76 3.5C8.76 3.42 8.78 3.35 8.84 3.3C8.9 3.24 8.97 3.22 9.05 3.22L18.5 3.22C18.58 3.22 18.65 3.24 18.7 3.3C18.76 3.35 18.79 3.42 18.79 3.5L18.79 16.78L17.7 15.77L17.7 17.86L17.81 17.95Z" fill="#CCCCCC" fill-opacity="1.000000" fill-rule="nonzero"/>
	</g>
</svg>
