<?xml version="1.0" encoding="UTF-8"?>
<svg width="16px" height="16px" viewBox="0 0 16 16" version="1.1" xmlns="http://www.w3.org/2000/svg" xmlns:xlink="http://www.w3.org/1999/xlink">
    <title>ic_good</title>
    <defs>
        <path d="M9.93672906,0.295728654 C10.4298589,0.661840209 10.6499802,1.29158389 10.4923068,1.88517787 L9.67223028,4.97252461 C9.66986722,4.98142086 9.67516341,4.99054833 9.68405966,4.9929114 L12.6964125,4.99346998 C13.800982,4.99346998 14.6964125,5.88890048 14.6964125,6.99346998 C14.6964125,7.17575893 14.6714911,7.35719214 14.6223406,7.53272983 L13.545343,11.3791498 C13.2229068,12.5307075 12.173286,13.3268033 10.9774389,13.3268033 L2,13.3268033 C0.8954305,13.3268033 0,12.4313728 0,11.3268033 L0,7.32680332 C0,6.22223382 0.8954305,5.32680332 2,5.32680332 L4.33333333,5.32680332 L7.83821376,0.605943959 C8.33203917,-0.0592086311 9.27157648,-0.198096754 9.93672906,0.295728654 Z M3.833,6.326 L2,6.32680332 C1.46026718,6.32680332 1.02040471,6.75439913 1.00068975,7.2893136 L1,11.3268033 C1,11.8665361 1.42759581,12.3063986 1.96251029,12.3261136 L3.833,12.326 L3.833,6.326 Z M8.66076293,1.17724168 L8.64112397,1.20204396 L4.83637838,6.32680332 L4.833,6.326 L4.833,12.326 L10.9774389,12.3268033 C11.7089411,12.3268033 12.3528996,11.8501909 12.5689021,11.1551553 L12.582379,11.1095199 L13.6593766,7.26309991 C13.6839518,7.17533106 13.6964125,7.08461446 13.6964125,6.99346998 C13.6964125,6.45373716 13.2688167,6.01387469 12.7339022,5.99415973 L12.6964125,5.99346998 L9.68833837,5.99346998 L9.59814573,5.98894206 C9.56763334,5.98679911 9.54570923,5.98393694 9.51566931,5.97817484 L9.42733705,5.95939653 C8.89699924,5.81852555 8.57639643,5.28356812 8.69663803,4.75281915 L8.70574516,4.71580199 L9.52582163,1.62845526 C9.57837943,1.4305906 9.50500568,1.22067604 9.34062907,1.09863886 C9.12743913,0.940361481 8.82968784,0.977077182 8.66076293,1.17724168 Z M2.5,9.66013665 C2.77614237,9.66013665 3,9.88399427 3,10.1601366 L3,11.1601366 C3,11.436279 2.77614237,11.6601366 2.5,11.6601366 C2.22385763,11.6601366 2,11.436279 2,11.1601366 L2,10.1601366 C2,9.88399427 2.22385763,9.66013665 2.5,9.66013665 Z" id="path-1"></path>
    </defs>
    <g id="ic_good" stroke="none" stroke-width="1" fill="none" fill-rule="evenodd">
        <g id="Public/ic_public_thumbsup" transform="translate(0.666667, 1.339863)">
            <mask id="mask-2" fill="white">
                <use xlink:href="#path-1"></use>
            </mask>
            <g id="形状结合" fill-rule="nonzero"></g>
            <g id="Symbol/color-light/colorPrimary" mask="url(#mask-2)" fill="#FFFFFF" fill-opacity="0.86">
                <g transform="translate(-0.666667, -1.339863)" id="color/#000000">
                    <rect x="0" y="0" width="16" height="16"></rect>
                </g>
            </g>
        </g>
    </g>
</svg>