<?xml version="1.0" encoding="UTF-8"?>
<svg width="16px" height="16px" viewBox="0 0 16 16" version="1.1" xmlns="http://www.w3.org/2000/svg" xmlns:xlink="http://www.w3.org/1999/xlink">
    <title>ic_favorites</title>
    <defs>
        <path d="M3.98,13.066 L3.90028107,13.1088993 C3.78621733,13.1688662 3.66675041,13.2080688 3.54620545,13.2278517 L3.42546133,13.2412112 L3.30495967,13.2419229 C2.90475949,13.2235477 2.52461928,12.9993564 2.32472976,12.619144 C2.20533418,12.3920401 2.16413372,12.1319107 2.20750671,11.8790268 L2.72154267,8.88196711 C2.75863463,8.6657044 2.68693564,8.4450376 2.52981158,8.2918795 L0.352320292,6.16935007 C-0.109077215,5.71959866 -0.118518239,4.98096652 0.331233175,4.51956901 C0.510326547,4.3358381 0.744992693,4.21626973 0.998902562,4.17937446 L4.00812152,3.74210936 C4.22526162,3.71055705 4.41297202,3.57417747 4.51008002,3.37741515 L5.85584365,0.650600207 C6.14100299,0.0728042708 6.84056647,-0.164424561 7.4183624,0.120734781 C7.64844378,0.234286727 7.83467588,0.420518835 7.94822783,0.650600207 L9.29399146,3.37741515 C9.39109947,3.57417747 9.57880986,3.71055705 9.79594997,3.74210936 L12.8051689,4.17937446 C13.4428046,4.27202835 13.8845996,4.86404501 13.7919457,5.50168068 C13.7550505,5.75559055 13.6354821,5.9902567 13.4517512,6.16935007 L11.2742599,8.2918795 C11.1171358,8.4450376 11.0454369,8.6657044 11.0825288,8.88196711 L11.5965648,11.8790268 C11.705486,12.5140859 11.2789668,13.1172012 10.6439076,13.2261224 C10.3910237,13.2694954 10.1308943,13.2282949 9.90379042,13.1088993 L7.84252448,12.0254834 C8.15963736,11.8179954 8.47333607,11.6062443 8.7836179,11.3902312 L10.3691315,12.2237679 C10.401575,12.2408244 10.4387363,12.2467102 10.4748626,12.240514 C10.5591051,12.2260653 10.6176601,12.1507428 10.613137,12.0674185 L10.6109565,12.0480718 L10.1139192,9.15784719 C9.72192897,9.46680583 9.33401369,9.7617649 8.95017338,10.0427244 C8.56620404,10.3237783 8.17664252,10.5979014 7.7814888,10.8650935 C7.17853299,11.2728235 6.56150555,11.6650426 5.93141365,12.0410697 L3.98,13.066 Z M6.87439738,1.00255543 L6.85768412,1.00626798 C6.84637493,1.00939428 6.83540663,1.01370437 6.82497833,1.01913072 L6.85823995,1.00611535 C6.84185333,1.01058466 6.82617415,1.01753678 6.81180639,1.0267669 L6.82497833,1.01913072 C6.81029143,1.02677304 6.79667564,1.03662947 6.78468718,1.0485114 L6.81180639,1.0267669 C6.79526625,1.0373926 6.78046408,1.05103723 6.76832128,1.06738834 L6.75257973,1.09316592 L5.4068161,3.81998086 C5.3582621,3.91836202 5.30064785,4.01070491 5.23519683,4.09612063 C5.22697261,4.10686298 5.21819073,4.11803373 5.20927476,4.12908149 C5.18447614,4.15977271 5.15931219,4.18879377 5.13322016,4.21687033 C5.10964885,4.24228462 5.08415442,4.26802959 5.05787605,4.29289495 C5.04735038,4.30285293 5.03680611,4.31257357 5.02614156,4.32215373 C5.00066573,4.34504295 4.97439534,4.36721607 4.9474738,4.38855128 C4.93008831,4.4023327 4.91226576,4.41588528 4.89417788,4.42907367 C4.87310463,4.44443334 4.85190752,4.45914291 4.83037553,4.47335627 C4.80563363,4.48969544 4.78016959,4.50554323 4.75428067,4.52070158 C4.73787893,4.53030574 4.72126025,4.53965824 4.70447704,4.54872741 C4.67178858,4.56638556 4.63868472,4.5828736 4.60501521,4.59826331 C4.58859329,4.60577509 4.57160589,4.61320566 4.55448315,4.62035664 C4.52583776,4.63231353 4.497111,4.64338279 4.468042,4.65366445 C4.44421736,4.66209795 4.41976233,4.67012373 4.39508627,4.67759073 C4.36370608,4.68707835 4.33235367,4.69557007 4.30068554,4.70315576 C4.28950763,4.70583318 4.27830422,4.70839471 4.26706302,4.71084259 L4.23859064,4.71678311 C4.22717023,4.71906213 4.21571249,4.72122425 4.20421892,4.72326837 L4.15191983,4.73171637 L1.14270088,5.16898148 C1.10642804,5.17425223 1.07290431,5.19133343 1.04731954,5.2175807 L1.01698612,5.26051052 C1.01477746,5.26501212 1.01278453,5.26959183 1.01100713,5.27423433 C1.00028535,5.30209583 0.997381326,5.33253956 1.00235296,5.36188835 C1.00312744,5.36643565 1.00405338,5.37080863 1.00515605,5.3751454 L1.00235296,5.36188835 C1.0049648,5.37730669 1.00975025,5.39242285 1.016703,5.406742 L1.00515605,5.3751454 C1.01028165,5.39530424 1.01922582,5.41468075 1.03197382,5.43212131 L1.05033198,5.45326371 L3.22782327,7.57579314 C3.27871366,7.625399 3.32601952,7.6778376 3.36961383,7.73271799 C3.393199,7.76240039 3.41583209,7.79299191 3.43734519,7.82424392 C3.45334672,7.84747987 3.46889289,7.8713474 3.48379727,7.8955616 C3.49559638,7.91472686 3.50706863,7.9342435 3.51812886,7.95396678 C3.53361559,7.98160437 3.54805795,8.00916496 3.56170719,8.03708189 C3.5717076,8.0575163 3.58153183,8.07870913 3.59090265,8.10008857 C3.59603973,8.11181727 3.60086819,8.1231836 3.60556897,8.13459992 C3.62229078,8.17515969 3.63762441,8.21704707 3.65125769,8.25948214 C3.65627068,8.27508825 3.66103091,8.29068959 3.6655618,8.3063591 C3.6754162,8.34041849 3.68424582,8.3750662 3.69195751,8.4099869 C3.69598755,8.42825312 3.69965122,8.44626869 3.70301736,8.46434894 C3.70838337,8.49312213 3.71306205,8.52256134 3.71695078,8.55213905 C3.72153646,8.58708353 3.72499181,8.62181237 3.7273538,8.65668022 C3.72849827,8.67355012 3.72939296,8.69061813 3.73002479,8.70771353 C3.73122716,8.74023241 3.73147789,8.77287566 3.73076309,8.80557828 C3.73027242,8.82786129 3.72935027,8.84989968 3.72798673,8.87195272 C3.72690474,8.889567 3.72547936,8.9078477 3.72374879,8.92613161 L3.71877564,8.97192224 C3.71775412,8.98025439 3.71666883,8.98858602 3.71551956,8.99691645 L3.707151,9.05101217 L3.19311503,12.0480718 C3.18691889,12.0841981 3.19280467,12.1213594 3.20986118,12.1538028 L3.24104697,12.1956558 C3.24532563,12.199826 3.24980484,12.2037394 3.25445985,12.2073885 C3.26374559,12.2146388 3.2734361,12.2206974 3.28360503,12.2257067 L3.25445985,12.2073885 C3.26767123,12.2177448 3.28229872,12.2259711 3.29777679,12.2318917 L3.28360503,12.2257067 C3.29980826,12.2336886 3.31722616,12.2390064 3.33513065,12.2414338 L3.29777679,12.2318917 C3.33219341,12.2450565 3.3708155,12.246821 3.40742552,12.2352525 L3.43493994,12.2237679 L3.436,12.222 L5.44,11.169 L6.02385915,10.8136943 C6.82480091,10.3152595 7.60334009,9.78929984 8.35952546,9.23579501 C9.17143225,8.64150379 10.0036093,7.98175952 10.8295601,7.28076915 L11.241894,6.92694886 L12.7537395,5.45326371 C12.7799868,5.42767894 12.797068,5.39415521 12.8023387,5.35788237 C12.8059044,5.33334362 12.8039294,5.30927781 12.7973594,5.28695214 C12.7949012,5.27865144 12.7919305,5.27085222 12.7884099,5.26333777 L12.7973594,5.28695214 C12.793147,5.27263807 12.7870458,5.25903932 12.7793048,5.24648988 L12.7884099,5.26333777 C12.7825274,5.25078238 12.7751096,5.23902196 12.7663618,5.22833158 L12.7793048,5.24648988 C12.7713608,5.23361114 12.76169,5.2218375 12.7505617,5.21152991 L12.7663618,5.22833158 C12.7562154,5.21593204 12.7442796,5.20497203 12.7308747,5.19588074 L12.7505617,5.21152991 C12.740324,5.20204733 12.728853,5.19380552 12.7163581,5.18708552 L12.7308747,5.19588074 C12.7178381,5.1870392 12.703412,5.17996512 12.6878911,5.17505326 L12.6613706,5.16898148 L9.65215165,4.73171637 C9.57093953,4.71991556 9.49137408,4.70224937 9.41396736,4.67908983 C9.38804546,4.67133215 9.36247879,4.66299836 9.33717107,4.65406776 C9.3152058,4.64632388 9.29298831,4.63795105 9.27098711,4.62911944 C9.24293744,4.61785468 9.21548111,4.6059568 9.1883969,4.59334563 C9.16765699,4.58368928 9.14709205,4.57359234 9.12675827,4.5630841 C9.09809516,4.54827274 9.0698375,4.5326122 9.04207479,4.51615587 C9.02332876,4.50504398 9.00481805,4.49357553 8.9865432,4.48175219 C8.9620888,4.46592764 8.9381825,4.44955857 8.91471869,4.43257859 C8.89143733,4.41573865 8.86829922,4.39806199 8.84563286,4.37978633 C8.82726579,4.36498035 8.80907619,4.3496649 8.79121446,4.33396015 C8.77099041,4.31617165 8.75141259,4.29810254 8.7322646,4.27955962 C8.71014504,4.25815728 8.68812006,4.23560519 8.66672578,4.21241475 C8.65133634,4.1957311 8.63634378,4.17880004 8.62168602,4.16155015 C8.60405111,4.14080033 8.58681156,4.11947313 8.57008201,4.09769432 C8.55275486,4.07512709 8.53618914,4.05238514 8.52017833,4.02918703 C8.50652767,4.0094165 8.49311388,3.98904983 8.48012768,3.96835322 C8.47070757,3.95333717 8.46158481,3.93827121 8.45268872,3.92303819 L8.43208437,3.88672009 C8.42849914,3.88021214 8.42495463,3.87367524 8.42145122,3.86710967 L8.39725538,3.81998086 L7.05149175,1.09316592 C7.03527005,1.06029715 7.00866546,1.03369256 6.97579669,1.01747086 L6.92549118,1.00187338 C6.90835047,0.999434426 6.89112001,0.99972932 6.87439738,1.00255543 Z" id="path-1"></path>
    </defs>
    <g id="ic_favorites" stroke="none" stroke-width="1" fill="none" fill-rule="evenodd">
        <g id="Public/ic_public_thumbsup" transform="translate(1.100000, 0.969217)">
            <mask id="mask-2" fill="white">
                <use xlink:href="#path-1"></use>
            </mask>
            <g id="形状结合" fill-rule="nonzero"></g>
            <g id="Symbol/color-light/colorPrimary" mask="url(#mask-2)" fill="#FFFFFF" fill-opacity="0.86">
                <g transform="translate(-1.100000, -0.969217)" id="color/#000000">
                    <rect x="0" y="0" width="16" height="16"></rect>
                </g>
            </g>
        </g>
    </g>
</svg>