<?xml version="1.0" encoding="UTF-8"?>
<svg width="36px" height="36px" viewBox="0 0 36 36" version="1.1" xmlns="http://www.w3.org/2000/svg" xmlns:xlink="http://www.w3.org/1999/xlink">
    <title>ic_enlarge</title>
    <defs>
        <path d="M10.25,8.5 L15.7940682,8.50127317 C15.9384255,8.50963743 16.0718294,8.55883023 16.1829044,8.63747605 L16.2618461,8.70180512 L16.2946723,8.73440836 C16.4219425,8.86881108 16.5,9.05028989 16.5,9.25 C16.5,9.62969577 16.2178461,9.94349096 15.8517706,9.99315338 L15.75,10 L11.061,10.001 L16.3513979,15.2907377 C16.6442911,15.5836309 16.6442911,16.0585047 16.3513979,16.3513979 C16.0585047,16.6442911 15.5836309,16.6442911 15.2907377,16.3513979 L10,11.06 L10,15.75 L9.99872683,15.7940682 C9.97591522,16.18777 9.64942022,16.5 9.25,16.5 C9.09094199,16.5 8.94344853,16.4504863 8.82209211,16.3660313 L8.73620318,16.2963663 L8.7036337,16.2637968 L8.67310187,16.2292885 C8.58662698,16.1253173 8.52772672,15.9975979 8.50762561,15.857355 L8.5,15.75 L8.50101475,10.1898376 C8.53105635,9.30059804 9.22453611,8.57959249 10.1021145,8.50616043 L10.25,8.5 Z M20.5983496,19.5376894 L26.25,25.189 L26.2512732,20.4559318 C26.2740848,20.06223 26.6005798,19.75 27,19.75 C27.159058,19.75 27.3065515,19.7995137 27.4279079,19.8839687 L27.5137968,19.9536337 L27.5463663,19.9862032 L27.5768981,20.0207115 C27.663373,20.1246827 27.7222733,20.2524021 27.7423744,20.392645 L27.75,20.5 L27.75,26 L27.7489852,26.0601624 C27.7189436,26.949402 27.0254639,27.6704075 26.1478855,27.7438396 L26,27.75 L20.5,27.75 L20.4559318,27.7487268 C20.3115745,27.7403626 20.1781706,27.6911698 20.0670956,27.6125239 L19.9881539,27.5481949 L19.9553277,27.5155916 C19.8280575,27.3811889 19.75,27.1997101 19.75,27 C19.75,26.6203042 20.0321539,26.306509 20.3982294,26.2568466 L20.5,26.25 L25.189,26.25 L19.5376894,20.5983496 C19.2447962,20.3054564 19.2447962,19.8305826 19.5376894,19.5376894 C19.8305826,19.2447962 20.3054564,19.2447962 20.5983496,19.5376894 Z" id="path-1"></path>
    </defs>
    <g id="ic_enlarge" stroke="none" stroke-width="1" fill="none" fill-rule="evenodd">
        <g id="编组-13">
            <circle id="椭圆形" fill-opacity="0.05" fill="#000000" cx="18" cy="18" r="18"></circle>
            <mask id="mask-2" fill="white">
                <use xlink:href="#path-1"></use>
            </mask>
            <use id="形状" fill-opacity="0.6" fill="#000000" fill-rule="nonzero" xlink:href="#path-1"></use>
        </g>
    </g>
</svg>