<svg width="24.000000" height="24.000000" viewBox="0 0 24 24" fill="none" xmlns="http://www.w3.org/2000/svg" xmlns:xlink="http://www.w3.org/1999/xlink">
	<desc>
			Created with Pixso.
	</desc>
	<defs>
		<clipPath id="clip241_11531">
			<rect id="svg" width="24.000000" height="24.000000" fill="white" fill-opacity="0"/>
		</clipPath>
	</defs>
	<g clip-path="url(#clip241_11531)">
		<path id="path-1" d="M13.48 1.25C14.18 1.25 14.82 1.66 15.09 2.31L15.92 4.23L16.77 4.72L18.85 4.47C19.52 4.39 20.18 4.7 20.54 5.27L22.06 7.91C22.41 8.51 22.37 9.27 21.95 9.83L20.69 11.51L20.69 12.48L21.95 14.16C22.35 14.7 22.41 15.43 22.1 16.02L20.58 18.66C20.22 19.26 19.55 19.6 18.85 19.52L16.77 19.27L15.92 19.76L15.09 21.68C14.83 22.31 14.23 22.72 13.55 22.74L10.51 22.75C9.8 22.75 9.17 22.33 8.9 21.68L8.07 19.76L7.22 19.27L5.14 19.52C4.47 19.6 3.81 19.29 3.45 18.72L1.93 16.08C1.58 15.48 1.62 14.72 2.04 14.16L3.3 12.48L3.3 11.51L2.04 9.83C1.64 9.29 1.58 8.56 1.89 7.97L3.41 5.33C3.77 4.73 4.44 4.39 5.14 4.47L7.22 4.72L8.07 4.23L8.9 2.31C9.16 1.68 9.76 1.27 10.44 1.25L13.48 1.25ZM13.48 2.75L10.51 2.75C10.41 2.75 10.31 2.8 10.28 2.9L9.42 4.9C9.31 5.15 9.13 5.35 8.9 5.49L7.9 6.06C7.67 6.2 7.39 6.25 7.13 6.22L4.96 5.96C4.86 5.95 4.76 6 4.71 6.08L3.23 8.66C3.18 8.74 3.18 8.85 3.24 8.93L4.55 10.67C4.71 10.89 4.8 11.15 4.8 11.42L4.8 12.57C4.8 12.84 4.71 13.1 4.55 13.32L3.24 15.06C3.18 15.14 3.18 15.25 3.23 15.33L4.71 17.91C4.76 17.99 4.86 18.04 4.96 18.03L7.13 17.77C7.39 17.74 7.67 17.79 7.9 17.93L8.9 18.5C9.13 18.64 9.31 18.84 9.42 19.09L10.28 21.09C10.31 21.19 10.41 21.25 10.51 21.25L13.48 21.25C13.58 21.25 13.67 21.19 13.71 21.09L14.57 19.09C14.68 18.84 14.86 18.64 15.09 18.5L16.09 17.93C16.32 17.79 16.6 17.74 16.86 17.77L19.03 18.03C19.13 18.04 19.23 17.99 19.28 17.91L20.76 15.33C20.81 15.25 20.81 15.14 20.75 15.06L19.44 13.32C19.28 13.1 19.19 12.84 19.19 12.57L19.19 11.42C19.19 11.15 19.28 10.89 19.44 10.67L20.75 8.93C20.81 8.85 20.81 8.74 20.76 8.66L19.28 6.08C19.23 6 19.13 5.95 19.03 5.96L16.86 6.22C16.6 6.25 16.32 6.2 16.09 6.06L15.09 5.49C14.86 5.35 14.68 5.15 14.57 4.9L13.71 2.9C13.67 2.8 13.58 2.75 13.48 2.75ZM12 7.5C14.48 7.5 16.5 9.51 16.5 12C16.5 14.48 14.48 16.5 12 16.5C9.51 16.5 7.5 14.48 7.5 12C7.5 9.51 9.51 7.5 12 7.5ZM12 9C10.34 9 9 10.34 9 12C9 13.65 10.34 15 12 15C13.65 15 15 13.65 15 12C15 10.34 13.65 9 12 9Z" fill="#FFFFFF" fill-opacity="1.000000" fill-rule="nonzero"/>
		<path id="path-1" d="M15.09 2.31L15.92 4.23L16.77 4.72L18.85 4.47C19.52 4.39 20.18 4.7 20.54 5.27L22.06 7.91C22.41 8.51 22.37 9.27 21.95 9.83L20.69 11.51L20.69 12.48L21.95 14.16C22.35 14.7 22.41 15.43 22.1 16.02L20.58 18.66C20.22 19.26 19.55 19.6 18.85 19.52L16.77 19.27L15.92 19.76L15.09 21.68C14.83 22.31 14.23 22.72 13.55 22.74L10.51 22.75C9.8 22.75 9.17 22.33 8.9 21.68L8.07 19.76L7.22 19.27L5.14 19.52C4.47 19.6 3.81 19.29 3.45 18.72L1.93 16.08C1.58 15.48 1.62 14.72 2.04 14.16L3.3 12.48L3.3 11.51L2.04 9.83C1.64 9.29 1.58 8.56 1.89 7.97L3.41 5.33C3.77 4.73 4.44 4.39 5.14 4.47L7.22 4.72L8.07 4.23L8.9 2.31C9.16 1.68 9.76 1.27 10.44 1.25L13.48 1.25C14.18 1.25 14.82 1.66 15.09 2.31ZM10.51 2.75C10.41 2.75 10.31 2.8 10.28 2.9L9.42 4.9C9.31 5.15 9.13 5.35 8.9 5.49L7.9 6.06C7.67 6.2 7.39 6.25 7.13 6.22L4.96 5.96C4.86 5.95 4.76 6 4.71 6.08L3.23 8.66C3.18 8.74 3.18 8.85 3.24 8.93L4.55 10.67C4.71 10.89 4.8 11.15 4.8 11.42L4.8 12.57C4.8 12.84 4.71 13.1 4.55 13.32L3.24 15.06C3.18 15.14 3.18 15.25 3.23 15.33L4.71 17.91C4.76 17.99 4.86 18.04 4.96 18.03L7.13 17.77C7.39 17.74 7.67 17.79 7.9 17.93L8.9 18.5C9.13 18.64 9.31 18.84 9.42 19.09L10.28 21.09C10.31 21.19 10.41 21.25 10.51 21.25L13.48 21.25C13.58 21.25 13.67 21.19 13.71 21.09L14.57 19.09C14.68 18.84 14.86 18.64 15.09 18.5L16.09 17.93C16.32 17.79 16.6 17.74 16.86 17.77L19.03 18.03C19.13 18.04 19.23 17.99 19.28 17.91L20.76 15.33C20.81 15.25 20.81 15.14 20.75 15.06L19.44 13.32C19.28 13.1 19.19 12.84 19.19 12.57L19.19 11.42C19.19 11.15 19.28 10.89 19.44 10.67L20.75 8.93C20.81 8.85 20.81 8.74 20.76 8.66L19.28 6.08C19.23 6 19.13 5.95 19.03 5.96L16.86 6.22C16.6 6.25 16.32 6.2 16.09 6.06L15.09 5.49C14.86 5.35 14.68 5.15 14.57 4.9L13.71 2.9C13.67 2.8 13.58 2.75 13.48 2.75L10.51 2.75ZM16.5 12C16.5 14.48 14.48 16.5 12 16.5C9.51 16.5 7.5 14.48 7.5 12C7.5 9.51 9.51 7.5 12 7.5C14.48 7.5 16.5 9.51 16.5 12ZM9 12C9 13.65 10.34 15 12 15C13.65 15 15 13.65 15 12C15 10.34 13.65 9 12 9C10.34 9 9 10.34 9 12Z" stroke="#000000" stroke-opacity="0" stroke-width="1.000000"/>
	</g>
</svg>
