<svg width="19.000000" height="19.000000" viewBox="0 0 19 19" fill="none" xmlns="http://www.w3.org/2000/svg" xmlns:xlink="http://www.w3.org/1999/xlink">
	<desc>
			Created with Pixso.
	</desc>
	<defs/>
	<path id="path-1" d="M8.99 -0.5C11.89 -0.5 14.24 1.85 14.24 4.75C14.24 7.57 12.01 9.88 9.21 9.99L8.99 10C8.16 10 7.36 10.12 6.6 10.36L6.38 10.43C6.21 10.49 6.05 10.55 5.9 10.62C5.86 10.63 5.82 10.65 5.78 10.66L5.9 10.62C5.83 10.64 5.85 10.64 5.78 10.66C5.71 10.7 5.64 10.73 5.57 10.77L5.78 10.66C5.69 10.71 5.52 10.78 5.44 10.83L5.57 10.77C5.5 10.8 5.5 10.79 5.44 10.83C5.35 10.87 5.26 10.92 5.18 10.96L5.44 10.83C5.37 10.86 5.24 10.93 5.18 10.96C5.05 11.03 4.91 11.12 4.78 11.2C4.72 11.23 4.68 11.26 4.63 11.29C4.51 11.37 4.4 11.44 4.29 11.52C4.22 11.58 4.15 11.63 4.08 11.68L4.29 11.52C4.23 11.57 4.14 11.64 4.08 11.68C4.02 11.73 3.95 11.78 3.89 11.83L4.08 11.68C4 11.74 3.97 11.77 3.89 11.83C3.83 11.88 3.77 11.94 3.71 11.99L3.89 11.83C3.83 11.88 3.77 11.94 3.71 11.99C3.64 12.05 3.58 12.11 3.52 12.16L3.71 11.99C3.65 12.04 3.57 12.12 3.52 12.16C3.38 12.29 3.25 12.42 3.13 12.56C3.03 12.67 2.93 12.78 2.83 12.89C2.79 12.95 2.74 13 2.7 13.06L2.83 12.89C2.79 12.95 2.74 13 2.7 13.06C2.65 13.12 2.6 13.19 2.55 13.25L2.7 13.06C2.64 13.13 2.53 13.28 2.47 13.36L2.55 13.25C2.5 13.32 2.45 13.39 2.4 13.46L2.47 13.36C2.43 13.42 2.44 13.4 2.4 13.46C2.35 13.53 2.31 13.6 2.26 13.67L2.4 13.46C2.35 13.54 2.24 13.71 2.19 13.78L2.26 13.67C2.22 13.74 2.23 13.71 2.19 13.78C2.04 14.02 1.9 14.28 1.78 14.53C1.76 14.57 1.75 14.6 1.73 14.64L1.78 14.53C1.74 14.61 1.71 14.68 1.67 14.76L1.73 14.64C1.7 14.71 1.7 14.69 1.67 14.76C1.64 14.85 1.6 14.93 1.56 15.02L1.67 14.76C1.64 14.84 1.6 14.94 1.56 15.02C1.54 15.09 1.51 15.16 1.48 15.24L1.56 15.02C1.53 15.11 1.47 15.26 1.44 15.35L1.48 15.24C1.46 15.29 1.46 15.3 1.44 15.35C1.32 15.69 1.23 16.04 1.15 16.4C1.14 16.46 1.13 16.51 1.12 16.56L1.15 16.4C1.14 16.49 1.14 16.48 1.12 16.56C1.11 16.65 1.09 16.74 1.08 16.83L1.12 16.56C1.11 16.66 1.07 16.85 1.06 16.95L1.08 16.83C1.07 16.9 1.06 16.98 1.05 17.06L1.06 16.95C1.05 17.03 1.04 17.11 1.03 17.19L1.05 17.06C1.04 17.16 1.03 17.27 1.02 17.37L1.03 17.19C1.02 17.37 1 17.54 1 17.72C1 17.81 0.99 17.9 0.99 17.99L1 17.72C1 17.81 0.99 17.9 0.99 17.99C0.99 18.4 0.66 18.75 0.24 18.75C-0.17 18.75 -0.51 18.41 -0.51 18C-0.51 17.8 -0.5 17.6 -0.49 17.4C-0.48 17.35 -0.48 17.3 -0.48 17.25C-0.47 17.21 -0.47 17.17 -0.47 17.13C-0.46 17.08 -0.46 17.03 -0.45 16.99C-0.45 16.94 -0.44 16.88 -0.44 16.83C-0.43 16.79 -0.43 16.76 -0.42 16.72C-0.38 16.44 -0.33 16.16 -0.27 15.89C-0.24 15.76 -0.21 15.61 -0.17 15.49C-0.15 15.42 -0.14 15.36 -0.12 15.3C-0.1 15.23 -0.06 15.11 -0.04 15.05C-0.03 15.01 -0.01 14.97 0 14.93C0.01 14.89 0.03 14.84 0.05 14.8C0.06 14.76 0.08 14.72 0.09 14.68C0.15 14.51 0.22 14.34 0.29 14.18C0.38 13.97 0.49 13.76 0.59 13.55C0.62 13.51 0.65 13.46 0.67 13.41C0.7 13.37 0.76 13.25 0.79 13.21C0.81 13.16 0.84 13.12 0.87 13.08C0.91 13 1.02 12.84 1.06 12.76C1.14 12.65 1.22 12.53 1.3 12.42C1.39 12.3 1.55 12.09 1.65 11.97C1.68 11.93 1.79 11.81 1.83 11.76C1.88 11.7 2 11.57 2.05 11.51C2.24 11.31 2.45 11.1 2.65 10.92C2.7 10.88 2.75 10.84 2.8 10.79C2.85 10.75 2.95 10.66 3 10.62C3.03 10.6 3.14 10.52 3.16 10.49C3.22 10.45 3.28 10.4 3.34 10.36C3.39 10.32 3.49 10.25 3.54 10.22C3.61 10.17 3.77 10.06 3.84 10.01C3.88 9.99 3.92 9.96 3.96 9.94C4 9.91 4.04 9.89 4.08 9.86C4.14 9.83 4.27 9.75 4.33 9.72C4.39 9.68 4.5 9.62 4.57 9.59C4.61 9.56 4.74 9.5 4.79 9.47C5.13 9.31 5.56 9.13 5.92 9C4.6 8.05 3.74 6.5 3.74 4.75C3.74 1.85 6.09 -0.5 8.99 -0.5ZM13.12 9.44C16.3 10.97 18.49 14.23 18.49 18C18.49 18.41 18.16 18.75 17.74 18.75C17.33 18.75 16.99 18.41 16.99 18C16.99 14.49 14.74 11.51 11.6 10.43C12.16 10.17 12.67 9.84 13.12 9.44ZM8.99 1C6.92 1 5.24 2.67 5.24 4.75C5.24 6.82 6.92 8.5 8.99 8.5C11.07 8.5 12.74 6.82 12.74 4.75C12.74 2.67 11.07 1 8.99 1Z" fill="#000000" fill-opacity="0.600000" fill-rule="nonzero"/>
	<path id="path-1" d="M1.12 16.56C1.11 16.66 1.07 16.85 1.06 16.95C1.05 17.03 1.04 17.11 1.03 17.19C1.02 17.37 1 17.54 1 17.72C1 17.81 0.99 17.9 0.99 17.99C0.99 18.4 0.66 18.75 0.24 18.75C-0.17 18.75 -0.51 18.41 -0.51 18C-0.51 17.8 -0.5 17.6 -0.49 17.4C-0.48 17.35 -0.48 17.3 -0.48 17.25C-0.47 17.21 -0.47 17.17 -0.47 17.13C-0.46 17.08 -0.46 17.03 -0.45 16.99C-0.45 16.94 -0.44 16.88 -0.44 16.83C-0.43 16.79 -0.43 16.76 -0.42 16.72C-0.38 16.44 -0.33 16.16 -0.27 15.89C-0.24 15.76 -0.21 15.61 -0.17 15.49C-0.15 15.42 -0.14 15.36 -0.12 15.3C-0.1 15.23 -0.06 15.11 -0.04 15.05C-0.03 15.01 -0.01 14.97 0 14.93C0.01 14.89 0.03 14.84 0.05 14.8C0.06 14.76 0.08 14.72 0.09 14.68C0.15 14.51 0.22 14.34 0.29 14.18C0.38 13.97 0.49 13.76 0.59 13.55C0.62 13.51 0.65 13.46 0.67 13.41C0.7 13.37 0.76 13.25 0.79 13.21C0.81 13.16 0.84 13.12 0.87 13.08C0.91 13 1.02 12.84 1.06 12.76C1.14 12.65 1.22 12.53 1.3 12.42C1.39 12.3 1.55 12.09 1.65 11.97C1.68 11.93 1.79 11.81 1.83 11.76C1.88 11.7 2 11.57 2.05 11.51C2.24 11.31 2.45 11.1 2.65 10.92C2.7 10.88 2.75 10.84 2.8 10.79C2.85 10.75 2.95 10.66 3 10.62C3.03 10.6 3.14 10.52 3.16 10.49C3.22 10.45 3.28 10.4 3.34 10.36C3.39 10.32 3.49 10.25 3.54 10.22C3.61 10.17 3.77 10.06 3.84 10.01C3.88 9.99 3.92 9.96 3.96 9.94C4 9.91 4.04 9.89 4.08 9.86C4.14 9.83 4.27 9.75 4.33 9.72C4.39 9.68 4.5 9.62 4.57 9.59C4.61 9.56 4.74 9.5 4.79 9.47C5.13 9.31 5.56 9.13 5.92 9C4.6 8.05 3.74 6.5 3.74 4.75C3.74 1.85 6.09 -0.5 8.99 -0.5C11.89 -0.5 14.24 1.85 14.24 4.75C14.24 7.57 12.01 9.88 9.21 9.99L8.99 10C8.16 10 7.36 10.12 6.6 10.36L6.38 10.43C6.21 10.49 6.05 10.55 5.9 10.62C5.83 10.64 5.85 10.64 5.78 10.66C5.69 10.71 5.52 10.78 5.44 10.83M5.9 10.62C5.86 10.63 5.82 10.65 5.78 10.66M5.78 10.66L5.9 10.62M5.78 10.66C5.71 10.7 5.64 10.73 5.57 10.77C5.5 10.8 5.5 10.79 5.44 10.83C5.37 10.86 5.24 10.93 5.18 10.96M5.57 10.77L5.78 10.66M5.44 10.83L5.57 10.77M5.44 10.83C5.35 10.87 5.26 10.92 5.18 10.96C5.05 11.03 4.91 11.12 4.78 11.2C4.72 11.23 4.68 11.26 4.63 11.29C4.51 11.37 4.4 11.44 4.29 11.52C4.22 11.58 4.15 11.63 4.08 11.68M5.18 10.96L5.44 10.83M4.08 11.68L4.29 11.52M4.29 11.52C4.23 11.57 4.14 11.64 4.08 11.68C4 11.74 3.97 11.77 3.89 11.83C3.83 11.88 3.77 11.94 3.71 11.99M4.08 11.68C4.02 11.73 3.95 11.78 3.89 11.83M3.89 11.83L4.08 11.68M3.89 11.83C3.83 11.88 3.77 11.94 3.71 11.99C3.64 12.05 3.58 12.11 3.52 12.16C3.38 12.29 3.25 12.42 3.13 12.56C3.03 12.67 2.93 12.78 2.83 12.89C2.79 12.95 2.74 13 2.7 13.06C2.65 13.12 2.6 13.19 2.55 13.25C2.5 13.32 2.45 13.39 2.4 13.46C2.35 13.53 2.31 13.6 2.26 13.67C2.22 13.74 2.23 13.71 2.19 13.78M3.71 11.99L3.89 11.83M3.52 12.16L3.71 11.99M3.71 11.99C3.65 12.04 3.57 12.12 3.52 12.16M2.7 13.06L2.83 12.89M2.83 12.89C2.79 12.95 2.74 13 2.7 13.06M2.55 13.25L2.7 13.06M2.7 13.06C2.64 13.13 2.53 13.28 2.47 13.36C2.43 13.42 2.44 13.4 2.4 13.46M2.47 13.36L2.55 13.25M2.4 13.46L2.47 13.36M2.26 13.67L2.4 13.46M2.4 13.46C2.35 13.54 2.24 13.71 2.19 13.78C2.04 14.02 1.9 14.28 1.78 14.53C1.74 14.61 1.71 14.68 1.67 14.76C1.64 14.85 1.6 14.93 1.56 15.02C1.54 15.09 1.51 15.16 1.48 15.24C1.46 15.29 1.46 15.3 1.44 15.35M2.19 13.78L2.26 13.67M1.78 14.53C1.76 14.57 1.75 14.6 1.73 14.64C1.7 14.71 1.7 14.69 1.67 14.76M1.73 14.64L1.78 14.53M1.67 14.76L1.73 14.64M1.56 15.02L1.67 14.76M1.67 14.76C1.64 14.84 1.6 14.94 1.56 15.02M1.48 15.24L1.56 15.02M1.56 15.02C1.53 15.11 1.47 15.26 1.44 15.35C1.32 15.69 1.23 16.04 1.15 16.4C1.14 16.49 1.14 16.48 1.12 16.56M1.44 15.35L1.48 15.24M1.15 16.4C1.14 16.46 1.13 16.51 1.12 16.56C1.11 16.65 1.09 16.74 1.08 16.83C1.07 16.9 1.06 16.98 1.05 17.06C1.04 17.16 1.03 17.27 1.02 17.37L1.03 17.19M1.12 16.56L1.15 16.4M1.08 16.83L1.12 16.56M1.06 16.95L1.08 16.83M1.05 17.06L1.06 16.95M1.03 17.19L1.05 17.06M1 17.72C1 17.81 0.99 17.9 0.99 17.99M0.99 17.99L1 17.72M18.49 18C18.49 18.41 18.16 18.75 17.74 18.75C17.33 18.75 16.99 18.41 16.99 18C16.99 14.49 14.74 11.51 11.6 10.43C12.16 10.17 12.67 9.84 13.12 9.44C16.3 10.97 18.49 14.23 18.49 18ZM5.24 4.75C5.24 6.82 6.92 8.5 8.99 8.5C11.07 8.5 12.74 6.82 12.74 4.75C12.74 2.67 11.07 1 8.99 1C6.92 1 5.24 2.67 5.24 4.75Z" stroke="#000000" stroke-opacity="0" stroke-width="1.000000"/>
</svg>
