<?xml version="1.0" encoding="UTF-8"?>
<svg width="36px" height="36px" viewBox="0 0 36 36" version="1.1" xmlns="http://www.w3.org/2000/svg" xmlns:xlink="http://www.w3.org/1999/xlink">
    <title>ic_reduce</title>
    <defs>
        <path d="M8.96680416,10.0274643 C8.68362252,9.7442827 8.69149532,9.27728176 8.98438854,8.98438854 C9.27728176,8.69149532 9.7442827,8.68362252 10.0274643,8.96680416 L16.7801475,15.7194873 C17.0633291,16.002669 17.0554564,16.4696699 16.7625631,16.7625631 C16.4696699,17.0554564 16.002669,17.0633291 15.7194873,16.7801475 L8.96680416,10.0274643 Z M25.75,18.5 L25.7940682,18.5012732 C25.9384255,18.5096374 26.0718294,18.5588302 26.1829044,18.6374761 L26.2618461,18.7018051 L26.2946723,18.7344084 C26.4219425,18.8688111 26.5,19.0502899 26.5,19.25 C26.5,19.6296958 26.2178461,19.943491 25.8517706,19.9931534 L25.75,20 L21.0604628,19.9994628 L27.0331756,25.9725154 C27.3163684,26.2557082 27.3085047,26.7227182 27.0156115,27.0156115 C26.7227182,27.3085047 26.2557082,27.3163684 25.9725154,27.0331756 L19.9994628,21.0604628 L19.9987268,25.7940682 C19.9759152,26.18777 19.6494202,26.5 19.25,26.5 C19.090942,26.5 18.9434485,26.4504863 18.8220921,26.3660313 L18.7362032,26.2963663 L18.7036337,26.2637968 L18.6731019,26.2292885 C18.586627,26.1253173 18.5277267,25.9975979 18.5076256,25.857355 L18.5,25.75 L18.5,20.25 L18.5010148,20.1898376 C18.5310564,19.300598 19.2245361,18.5795925 20.1021145,18.5061604 L20.25,18.5 L25.75,18.5 Z M16.75,9.5 C16.909058,9.5 17.0565515,9.54951372 17.1779079,9.63396869 L17.2637968,9.7036337 L17.2963663,9.73620318 L17.3268981,9.77071147 C17.413373,9.87468274 17.4722733,10.0024021 17.4923744,10.142645 L17.5,10.25 L17.4989852,15.8101624 C17.4689436,16.699402 16.7754639,17.4204075 15.8978855,17.4938396 L15.75,17.5 L10.2059318,17.4987268 C10.0615745,17.4903626 9.92817057,17.4411698 9.81709563,17.3625239 L9.73815385,17.2981949 L9.70532772,17.2655916 C9.5780575,17.1311889 9.5,16.9497101 9.5,16.75 C9.5,16.3703042 9.78215388,16.056509 10.1482294,16.0068466 L10.25,16 L15.2940682,15.9987268 C15.6549615,15.9778162 15.9473959,15.7017271 15.9936287,15.3482022 L16,15.25 L16,10.25 L16.0012732,10.2059318 C16.0240848,9.81222999 16.3505798,9.5 16.75,9.5 Z" id="path-1"></path>
    </defs>
    <g id="ic_reduce" stroke="none" stroke-width="1" fill="none" fill-rule="evenodd">
        <g id="编组-13">
            <circle id="椭圆形" fill-opacity="0.05" fill="#000000" cx="18" cy="18" r="18"></circle>
            <mask id="mask-2" fill="white">
                <use xlink:href="#path-1"></use>
            </mask>
            <use id="形状" fill-opacity="0.6" fill="#000000" fill-rule="nonzero" xlink:href="#path-1"></use>
        </g>
    </g>
</svg>