<?xml version="1.0" encoding="UTF-8"?>
<svg width="40px" height="40px" viewBox="0 0 40 40" version="1.1" xmlns="http://www.w3.org/2000/svg" xmlns:xlink="http://www.w3.org/1999/xlink">
    <title>ic_normal</title>
    <defs>
        <path d="M27.8280053,9 C29.1117923,9 29.5773245,9.13318457 30.0466578,9.38327736 C30.5159911,9.63337014 30.8843267,10.0003711 31.1353289,10.468004 L31.1739834,10.5419287 C31.4000313,10.9867211 31.52,11.4668052 31.52,12.6786179 L31.52,15.934 L31.6062806,15.9425161 C31.8301998,15.9831586 32,16.1791411 32,16.4147826 L32,18.3243478 C32,18.5891059 31.7856453,18.8037988 31.5210155,18.8043468 L31.52,27.3213821 L31.5188916,27.516695 C31.5056046,28.649354 31.3731205,29.0889754 31.1353289,29.531996 C30.8843267,29.9996289 30.5159911,30.3666299 30.0466578,30.6167226 L29.9724643,30.6552371 C29.5260545,30.8804659 29.0442246,31 27.8280053,31 L11.6919947,31 L11.4959715,30.9988956 C10.3591938,30.9856567 9.91797377,30.8536526 9.47334219,30.6167226 C9.00400885,30.3666299 8.63567331,29.9996289 8.38467109,29.531996 L8.34601662,29.4580713 C8.11996875,29.0132789 8,28.5331948 8,27.3213821 L8,12.6786179 C8,11.3994823 8.13366888,10.9356368 8.38467109,10.468004 C8.63567331,10.0003711 9.00400885,9.63337014 9.47334219,9.38327736 L9.54753571,9.34476293 C9.99394554,9.11953408 10.4757754,9 11.6919947,9 L27.8280053,9 Z M27.9128404,10.4347826 L11.6919947,10.4347826 L11.4479987,10.4362019 C10.6861081,10.4457792 10.4217606,10.5049776 10.1524445,10.6484876 C9.93405781,10.7648589 9.7712766,10.9270504 9.6544821,11.1446458 C9.50084816,11.4308755 9.44349081,11.7114725 9.44015569,12.5940902 L9.44015569,27.4059098 L9.44148712,27.5693848 C9.4512925,28.324757 9.51076002,28.5875909 9.6544821,28.8553542 C9.7712766,29.0729496 9.93405781,29.2351411 10.1524445,29.3515124 C10.4217606,29.4950224 10.6861081,29.5542208 11.4479987,29.5637981 L11.6919947,29.5652174 L27.8280053,29.5652174 C28.7810721,29.5652174 29.0713078,29.5093734 29.3675555,29.3515124 C29.5859422,29.2351411 29.7487234,29.0729496 29.8655179,28.8553542 C30.0095497,28.5870139 30.0689634,28.3236242 30.0785756,27.564494 L30.08,27.3213821 L30.08,12.6786179 C30.08,11.7290043 30.0239529,11.4398202 29.8655179,11.1446458 C29.7487234,10.9270504 29.5859422,10.7648589 29.3675555,10.6484876 C29.080285,10.4954103 28.7986676,10.4382608 27.9128404,10.4347826 Z" id="path-1"></path>
    </defs>
    <g id="ic_normal" stroke="none" stroke-width="1" fill="none" fill-rule="evenodd">
        <circle id="椭圆形备份" fill-opacity="0.05" fill="#000000" cx="20" cy="20" r="20"></circle>
        <mask id="mask-2" fill="white">
            <use xlink:href="#path-1"></use>
        </mask>
        <use id="形状结合备份" fill="#182431" fill-rule="nonzero" xlink:href="#path-1"></use>
    </g>
</svg>