<?xml version="1.0" encoding="UTF-8"?>
<svg width="24px" height="24px" viewBox="0 0 24 24" version="1.1" xmlns="http://www.w3.org/2000/svg" xmlns:xlink="http://www.w3.org/1999/xlink">
    <title>ic_star_on</title>
    <defs>
        <path d="M12.9810746,2.65462493 L15.298014,8.94466805 L15.298014,8.94466805 L21.5861167,8.94466805 C22.1384014,8.94466805 22.5861167,9.3923833 22.5861167,9.94466805 C22.5861167,10.2585845 22.4387091,10.5542824 22.1880269,10.7432318 L17.0711217,14.6000524 L17.0711217,14.6000524 L18.9971864,20.7008132 C19.163458,21.2274746 18.8713045,21.7892078 18.3446432,21.9554795 C18.0486583,22.0489245 17.7260619,21.9996323 17.4714876,21.8220628 L12.0632895,18.0497599 L12.0632895,18.0497599 L6.8943241,21.8988009 C6.45136019,22.2286515 5.82487024,22.136955 5.49501965,21.6939911 C5.30742975,21.4420723 5.24909939,21.1166547 5.33750974,20.8152636 L7.15573761,14.6169189 L7.15573761,14.6169189 L1.90690569,10.7497528 C1.46226968,10.4221596 1.36738769,9.79614421 1.69498083,9.3515082 C1.88346221,9.09568597 2.18230738,8.94466805 2.50006554,8.94466805 L8.79045846,8.94466805 L8.79045846,8.94466805 L11.1041977,2.65502601 C11.2948717,2.13669999 11.8696298,1.87108555 12.3879558,2.06175955 C12.6629793,2.16293108 12.8797856,2.37964468 12.9810746,2.65462493 Z" id="path-1"></path>
    </defs>
    <g id="ic_star_on" stroke="none" stroke-width="1" fill="none" fill-rule="evenodd">
        <mask id="mask-2" fill="white">
            <use xlink:href="#path-1"></use>
        </mask>
        <use id="Stroke-161-Copy-2" fill="#FFBF00" fill-rule="nonzero" xlink:href="#path-1"></use>
    </g>
</svg>